<?xml version="1.0" encoding="UTF-8"?>
<svg width="72px" height="72px" viewBox="0 0 72 72" version="1.1" xmlns="http://www.w3.org/2000/svg" xmlns:xlink="http://www.w3.org/1999/xlink">
    <!-- Generator: Sketch 63.1 (92452) - https://sketch.com -->
    <title>Animal planet White</title>
    <desc>Created with Sketch.</desc>
    <defs>
        <circle id="path-1" cx="36" cy="36" r="36"></circle>
        <path d="M48.6339859,56.5009874 L49.4052556,58.8632694 L50.231134,56.5009874 L50.9999494,56.5009874 C50.9999494,56.5009874 49.5881024,60.1585363 49.4052556,60.5315928 C49.235294,60.8733567 49.1800719,60.9402369 48.9327992,61.0966997 C48.7615338,61.2056868 48.2717629,61.2070961 47.9781219,61.2065676 L47.865784,61.2065305 L47.865784,60.6021544 C48.0154975,60.6119717 48.4063478,60.6193347 48.5756958,60.5322063 C48.7748303,60.3894096 48.991713,59.8358694 49.0295005,59.7364059 L49.0438571,59.7014194 L47.8467631,56.5009874 L48.6339859,56.5009874 Z M36.8403696,56.4341072 C37.0894829,56.4341072 37.3189618,56.4788985 37.5281925,56.5647997 C37.7368096,56.651928 37.9184292,56.7721896 38.070597,56.924971 C38.2246055,57.0771388 38.3430264,57.2550769 38.4270868,57.4551039 C38.5142151,57.6575852 38.5565521,57.8735653 38.5565521,58.1048849 L38.5565521,58.11777 C38.5565521,58.3466353 38.5123744,58.5613882 38.4240189,58.7638695 C38.3375041,58.9681916 38.2166289,59.1467433 38.0650747,59.298911 C37.9116798,59.4510788 37.7294466,59.5725676 37.5189888,59.6627638 C37.3079173,59.7511193 37.0765978,59.7971378 36.8287115,59.7971378 C36.5845068,59.7971378 36.3574823,59.7523465 36.1488652,59.6646046 C35.9384073,59.5780898 35.7574013,59.4590554 35.60462,59.3075012 C35.4530658,59.1571741 35.3334177,58.9816903 35.2481301,58.7779818 C35.162229,58.5736598 35.119892,58.3582933 35.119892,58.1300416 L35.119892,58.11777 C35.119892,57.8858369 35.1634561,57.6674025 35.2505844,57.4643076 C35.3389399,57.2618263 35.4598151,57.0845017 35.6119829,56.9304932 C35.7641507,56.7777119 35.9451567,56.6574502 36.1556146,56.567254 C36.3642317,56.4788985 36.5930969,56.4341072 36.8403696,56.4341072 Z M43.5406604,56.4341072 C43.7971367,56.4341072 44.0217069,56.4795121 44.2137574,56.574617 C44.407035,56.6672675 44.5677929,56.7936649 44.6960311,56.9525821 C44.8242692,57.1102721 44.9212148,57.2949596 44.9868679,57.5041903 C45.0506802,57.7146481 45.0838135,57.9355368 45.0838135,58.1668564 C45.0838135,58.1993761 45.0825863,58.2325094 45.0807456,58.2668699 C45.0789048,58.3036847 45.0746098,58.3374316 45.0715419,58.3742464 L42.703124,58.3742464 C42.7442339,58.6386992 42.849156,58.840567 43.0178905,58.9829175 C43.187852,59.1215865 43.3909469,59.1921482 43.6314702,59.1921482 C43.8161577,59.1921482 43.9726205,59.1590149 44.1076081,59.0952026 C44.2407549,59.0295495 44.3732881,58.9332175 44.5039806,58.8080472 L44.9383951,59.1921482 C44.783773,59.3749949 44.5978583,59.5228677 44.3855597,59.6314713 C44.172034,59.7406885 43.9155576,59.7971378 43.6191986,59.7971378 C43.3872655,59.7971378 43.1700582,59.7554144 42.9681905,59.6750354 C42.7675499,59.5934293 42.5920661,59.4786899 42.4435798,59.3314308 C42.2957071,59.186626 42.1778998,59.009915 42.0932258,58.8049793 C42.0073246,58.6000437 41.9662148,58.371792 41.9662148,58.1245194 L41.9662148,58.1128614 C41.9662148,57.8803147 42.0042567,57.6618803 42.0809542,57.4587854 C42.1588788,57.2550769 42.2674824,57.0771388 42.4092193,56.924971 C42.5485019,56.7721896 42.7141685,56.651928 42.9049918,56.5647997 C43.0958151,56.4788985 43.3087273,56.4341072 43.5406604,56.4341072 Z M33.6313475,56.4341072 C34.1791515,56.4341072 34.5415746,56.6170031 34.8264161,56.8919929 L34.9186378,56.9869426 L34.4602937,57.482715 C34.2338828,57.2434189 33.997041,57.0789795 33.6252117,57.0789795 C33.0871022,57.0789795 32.6974791,57.5428458 32.6974791,58.1104071 C32.6974791,58.6902399 33.093238,59.1534926 33.6614129,59.1534926 C33.966362,59.1534926 34.2003756,59.0280635 34.4094912,58.8372186 L34.4977221,58.7515979 L34.943181,59.190921 C34.6265738,59.5443429 34.2529038,59.7940699 33.6252117,59.7940699 C32.6668001,59.7940699 31.9599563,59.0442754 31.9599563,58.1239058 C31.9599563,57.2010819 32.6668001,56.4341072 33.6313475,56.4341072 Z M30.368944,56.4451516 C30.573266,56.4451516 30.7794288,56.4788985 30.9868188,56.5433244 C31.1432816,56.5916438 31.2876646,56.6548042 31.4222974,56.7309935 L31.5537665,56.8114587 L31.2604753,57.3372966 C31.1058532,57.2434189 30.950004,57.1679486 30.7910868,57.11334 C30.6315561,57.059345 30.4855241,57.0323475 30.3536045,57.0323475 C30.2087997,57.0323475 30.0983553,57.0617993 30.0192035,57.1219301 C29.9598397,57.1684088 29.923255,57.223861 29.9086729,57.2882869 L29.9013962,57.355704 L29.9013962,57.367362 C29.9013962,57.4244249 29.9210308,57.4747385 29.9609134,57.5158483 C30.0001825,57.5606396 30.0560183,57.5986816 30.1235121,57.6324285 C30.1897787,57.6667889 30.2664762,57.6986951 30.3548316,57.7269197 C30.4413464,57.7563716 30.5321562,57.7870505 30.6260339,57.8189567 C30.7444548,57.8551579 30.8628757,57.8968813 30.9800694,57.9465813 C31.0997174,57.9956677 31.2052532,58.0564121 31.300358,58.1269737 C31.3960765,58.1975354 31.4740011,58.2840501 31.5353591,58.386518 C31.5818377,58.4619883 31.6107143,58.550919 31.6222477,58.6527924 L31.6280096,58.7589609 L31.6280096,58.7712325 C31.6280096,58.9411941 31.5973306,59.0902939 31.5353591,59.2166914 C31.4740011,59.3430888 31.3899407,59.4473973 31.2837914,59.5302306 C31.1739606,59.6124503 31.0481768,59.6768762 30.9015312,59.7210539 C30.7548856,59.7621638 30.5959685,59.783639 30.4309155,59.783639 C30.1989824,59.783639 29.9639813,59.7425292 29.726526,59.6627638 C29.5475141,59.6015593 29.3785112,59.5186109 29.2195174,59.4139189 L29.0638598,59.3019789 L29.3933522,58.8012979 C29.568836,58.9313768 29.7455469,59.0295495 29.9277801,59.0964297 C30.1081726,59.1651507 30.2818156,59.1988975 30.4493229,59.1988975 C30.6082401,59.1988975 30.730956,59.1657642 30.8180843,59.1031791 C30.884351,59.0562403 30.9254225,58.9968764 30.9418165,58.9253464 L30.950004,58.8497707 L30.950004,58.8387262 C30.950004,58.7779818 30.930983,58.7239868 30.8923275,58.6791955 C30.8524448,58.6350178 30.8009041,58.5945215 30.7321832,58.560161 C30.665303,58.5264141 30.5898327,58.4963487 30.5014772,58.4687376 C30.4143489,58.4417401 30.3223119,58.4153562 30.2290478,58.386518 C30.1106269,58.3546118 29.9928196,58.3153427 29.872558,58.2699378 C29.7522963,58.2263736 29.6449199,58.16747 29.5492014,58.0969083 C29.4528694,58.0257331 29.3761719,57.9373776 29.3142004,57.8312283 C29.2681819,57.7516163 29.2397655,57.6585439 29.2284334,57.5514934 L29.222777,57.4397644 L29.222777,57.42872 C29.222777,57.275325 29.2522288,57.1360424 29.3111325,57.0163944 C29.368809,56.8961328 29.4510287,56.7936649 29.5553372,56.7083774 C29.6590322,56.6230898 29.780521,56.5574367 29.9210308,56.513259 C30.0621541,56.4684677 30.211254,56.4451516 30.368944,56.4451516 Z M39.3793626,56.5009874 L40.2449494,58.86745 L41.1182476,56.5009874 L41.8944259,56.5009874 L40.5752295,59.7474378 L39.9113362,59.7474378 L38.5853904,56.5009874 L39.3793626,56.5009874 Z M22.7038603,56.320779 C23.6457053,56.320779 24.4083849,57.0846858 24.4083849,58.0253036 C24.4083849,58.9653077 23.6457053,59.7273738 22.7038603,59.7273738 C21.7632426,59.7273738 20.9999494,58.9653077 20.9999494,58.0253036 C20.9999494,57.0846858 21.7632426,56.320779 22.7038603,56.320779 Z M28.5601109,56.5009874 L28.5601109,59.7235082 L27.822588,59.7235082 L27.822588,56.5009874 L28.5601109,56.5009874 Z M46.3735581,56.5009874 L46.3735581,57.032961 C46.6173026,56.7312332 46.9939927,56.5976837 47.258231,56.5390042 L47.3638758,56.5181676 L47.6166707,57.1348153 C47.2957685,57.1820609 46.6760529,57.348341 46.4533235,57.9355368 C46.4091457,58.0524238 46.3863666,58.1876031 46.3777381,58.3395216 L46.3735581,58.4969623 L46.3735581,59.7235082 L45.6360352,59.7235082 L45.6360352,56.5009874 L46.3735581,56.5009874 Z M25.1246779,55.42845 C26.4678039,55.42845 27.3949229,56.3494332 27.3949229,57.5569581 C27.3949229,58.7638695 26.4678039,59.6977379 25.1246779,59.6977379 L23.8269567,59.6977379 C24.0901824,59.5234812 24.3080032,59.2897073 24.4644661,59.0154372 L25.1246779,59.0154372 C26.0211179,59.0154372 26.6083137,58.4110611 26.6083137,57.5686162 C26.6083137,56.7273983 26.0211179,56.1113643 25.1246779,56.1113643 L24.2840736,56.1113643 L24.2840736,56.7390563 C24.1607441,56.5868886 24.0153257,56.4488331 23.8545678,56.3371616 C23.7539407,56.2672135 23.6459507,56.2076963 23.5336656,56.1586099 L23.5336656,55.42845 L25.1246779,55.42845 Z M36.8287115,57.0808203 C36.6814524,57.0808203 36.5489192,57.1065906 36.4292711,57.1618128 C36.3090095,57.2182621 36.2059281,57.2912781 36.1212541,57.3827015 C36.0359665,57.4747385 35.9696999,57.5821149 35.9255222,57.7054444 C35.8801173,57.8306147 35.858642,57.9637615 35.858642,58.1048849 L35.858642,58.11777 C35.858642,58.2570526 35.8825716,58.3889723 35.931658,58.5147561 C35.9795172,58.6417671 36.0488517,58.7515979 36.1365936,58.8473164 C36.2231083,58.9436484 36.3268033,59.0185051 36.4464514,59.0731137 C36.5673266,59.1277223 36.6992462,59.155947 36.8403696,59.155947 C36.9906966,59.155947 37.1262977,59.1277223 37.2471729,59.0731137 C37.366821,59.0185051 37.4699024,58.9436484 37.55519,58.8497707 C37.6404776,58.7577337 37.7042898,58.6472894 37.7496947,58.5233462 C37.7944861,58.3994031 37.8171885,58.2687106 37.8171885,58.1300416 L37.8171885,58.11777 C37.8171885,57.9754195 37.7920317,57.8416591 37.7435589,57.7152617 C37.6950861,57.5888643 37.6257516,57.4796471 37.5404641,57.386383 C37.4521086,57.2912781 37.3484136,57.2182621 37.2293791,57.1618128 C37.1091175,57.1065906 36.9753571,57.0808203 36.8287115,57.0808203 Z M43.5332974,57.0384833 C43.3056594,57.0384833 43.1191311,57.1157943 42.9681905,57.2728707 C42.8203178,57.4305607 42.729508,57.5569581 42.6969882,57.8079123 L44.3511992,57.8079123 C44.3383141,57.6894914 44.3137709,57.6575852 44.272661,57.5532767 C44.2309376,57.4501953 44.1757154,57.3575447 44.1076081,57.2814608 C44.0382736,57.2047634 43.9548267,57.1446326 43.8615626,57.101682 C43.7640034,57.059345 43.6547862,57.0384833 43.5332974,57.0384833 Z M22.9433042,44.7252093 C24.3445701,44.7252093 25.4077891,45.7934127 25.4077891,47.2089408 C25.4077891,48.6062778 24.3162232,49.7028256 22.9221498,49.7028256 C22.2773644,49.7028256 21.5898471,49.4181124 21.3178019,49.0064839 L21.2788778,49.0064839 L21.2788778,51.42845 L19.6436445,51.42845 L19.6436445,44.8855456 L21.2788778,44.8855456 L21.2788778,45.496431 C21.2788778,45.496431 21.763313,44.7252093 22.9433042,44.7252093 Z M43.8835988,44.7252093 C45.8890337,44.7252093 46.6768227,46.0942019 46.5346653,47.6480676 L45.6690282,47.6480676 L45.6690282,47.6497598 L42.9367289,47.6497598 C43.1089255,48.1997259 43.5836297,48.53309 44.2715701,48.53309 C44.9493563,48.53309 45.2404405,48.3782534 45.668182,48.2483768 L45.9816899,49.3423863 C45.4811773,49.5196446 44.9370868,49.7028256 44.2076838,49.7028256 C42.3642914,49.7028256 41.2663793,48.6671971 41.2663793,47.2317856 C41.2663793,45.9279429 42.1387858,44.7252093 43.8835988,44.7252093 Z M30.9392356,44.7252093 C32.1188036,44.7252093 32.6036619,45.496431 32.6036619,45.496431 L32.6036619,44.8855456 L34.2388953,44.8855456 L34.2388953,49.5429124 L32.6036619,49.5429124 L32.6036619,49.0064839 L32.5647379,49.0064839 C32.2922695,49.4181124 31.6051753,49.7028256 30.9599668,49.7028256 C29.5663165,49.7028256 28.4747507,48.6062778 28.4747507,47.2089408 C28.4747507,45.7934127 29.5383927,44.7252093 30.9392356,44.7252093 Z M49.254272,43.7889978 L49.254272,44.8855456 L50.4232629,44.8855456 L50.4232629,46.0916636 L49.254272,46.0916636 L49.254272,47.8629775 C49.254272,48.2813747 49.3786597,48.4594792 49.6663593,48.5115144 C49.8749414,48.5487429 50.2091806,48.5309747 50.4351093,48.4675171 L50.5531507,49.5902941 C50.1122935,49.6875958 49.7814391,49.7028256 49.4890856,49.7028256 C48.1868221,49.7028256 47.6190387,49.090248 47.6190387,47.8667849 L47.6190387,46.0916636 L46.9065592,46.0916636 L46.9065592,44.8855456 L47.6190387,44.8855456 L47.6190387,43.7889978 L49.254272,43.7889978 Z M38.7765091,44.7252093 C39.9309337,44.7252093 40.5442667,45.3107654 40.6000616,46.4676252 L40.6042473,46.6454371 L40.6042473,49.5429124 L38.9711294,49.5429124 L38.9711294,47.1700202 C38.9711294,46.4233354 38.8023175,45.9237124 38.1093001,45.9237124 C37.4734788,45.9237124 37.0908904,46.3888617 37.0455505,47.2637357 L37.041004,47.4441571 L37.041004,49.5429124 L35.4078861,49.5429124 L35.4078861,44.8855456 L37.041004,44.8855456 L37.041004,45.4972771 L37.0790819,45.4972771 C37.4568991,44.9693097 38.0479524,44.7252093 38.7765091,44.7252093 Z M27.7593096,43.033852 L27.7593096,49.5429124 L26.1236532,49.5429124 L26.1236532,43.033852 L27.7593096,43.033852 Z M22.4652153,46.0087456 C21.7650054,46.0087456 21.1959526,46.5523659 21.1959526,47.2123253 C21.1959526,47.7868283 21.6605028,48.4159049 22.4652153,48.4159049 C23.2538504,48.4159049 23.7365933,47.7902127 23.7365933,47.2123253 C23.7365933,46.5510968 23.1671175,46.0087456 22.4652153,46.0087456 Z M31.4173245,46.0087456 C30.7154223,46.0087456 30.1459464,46.5510968 30.1459464,47.2123253 C30.1459464,47.7902127 30.6291124,48.4159049 31.4173245,48.4159049 C32.2216139,48.4159049 32.6865871,47.7868283 32.6865871,47.2123253 C32.6865871,46.5523659 32.1171113,46.0087456 31.4173245,46.0087456 Z M44.005448,45.8340256 C43.5193204,45.8340256 43.0640782,46.0946249 42.9155745,46.6991646 L45.0868597,46.6991646 C45.0001268,46.2278859 44.5690006,45.8340256 44.005448,45.8340256 Z M45.8869183,36.6275931 C47.0664863,36.6275931 47.5513447,37.3983917 47.5513447,37.3983917 L47.5513447,36.7879293 L49.1870011,36.7879293 L49.1870011,41.4448731 L47.5513447,41.4448731 L47.5513447,40.9092907 L47.5124206,40.9092907 C47.2399522,41.3204961 46.5520119,41.6047863 45.9076496,41.6047863 C44.5135761,41.6047863 43.4215872,40.5090846 43.4215872,39.1113246 C43.4215872,37.6953734 44.4856524,36.6275931 45.8869183,36.6275931 Z M20.4648574,36.6275931 C21.6444254,36.6275931 22.1292838,37.3983917 22.1292838,37.3983917 L22.1292838,36.7879293 L23.7649402,36.7879293 L23.7649402,41.4448731 L22.1292838,41.4448731 L22.1292838,40.9092907 L22.0903597,40.9092907 C21.8183144,41.3204961 21.1307972,41.6047863 20.4855887,41.6047863 C19.0915152,41.6047863 17.9999494,40.5090846 17.9999494,39.1113246 C17.9999494,37.6953734 19.0635915,36.6275931 20.4648574,36.6275931 Z M51.9912253,34.9353897 L51.9912253,41.4448731 L50.3559919,41.4448731 L50.3559919,34.9353897 L51.9912253,34.9353897 Z M40.8217143,36.6275931 C42.1561324,36.6275931 42.7598783,37.3044744 42.7598783,38.4551727 L42.7598783,41.4448731 L41.1263373,41.4448731 L41.1263373,39.1350154 C41.1263373,38.4251361 41.008719,37.8311727 40.2810084,37.8311727 C39.3662931,37.8311727 39.2038275,38.6802358 39.2038275,39.3516175 L39.2038275,41.4448731 L37.5707096,41.4448731 L37.5704601,39.0363372 C37.5656639,38.5087226 37.500101,37.8311727 36.7084572,37.8311727 C35.9494382,37.8311727 35.6431228,38.4733639 35.6431228,39.3516175 L35.6431228,41.4448731 L34.0078895,41.4448731 L34.0078895,36.7879293 L35.6431228,36.7879293 L35.6431228,37.4043144 L35.6803545,37.4043144 C36.0772106,36.9059605 36.7021109,36.6275931 37.3578966,36.6275931 C38.6635447,36.6275931 38.9563213,37.4043144 38.9563213,37.4043144 C38.9563213,37.4043144 39.5228355,36.6275931 40.8217143,36.6275931 Z M32.8380524,36.7875063 L32.8380524,41.4448731 L31.2028191,41.4448731 L31.2028191,36.7875063 L32.8380524,36.7875063 Z M28.3034002,36.6275931 C29.4582277,36.6275931 30.0719637,37.2127654 30.1277961,38.3703195 L30.1319845,38.5482439 L30.1319845,41.4448731 L28.4984436,41.4448731 L28.4984436,39.0724039 C28.4984436,38.3252961 28.3292085,37.8265192 27.6366142,37.8265192 C26.9999997,37.8265192 26.6177335,38.2912967 26.572437,39.1661242 L26.5678951,39.3465408 L26.5678951,41.4448731 L24.9343541,41.4448731 L24.9343541,36.7879293 L26.5678951,36.7879293 L26.5678951,37.3992378 L26.605973,37.3992378 C26.9837902,36.8716934 27.5752665,36.6275931 28.3034002,36.6275931 Z M46.3645841,37.9111293 C45.6622588,37.9111293 45.0936291,38.4530575 45.0936291,39.115132 C45.0936291,39.6930195 45.5767951,40.3178656 46.3645841,40.3178656 C47.1692966,40.3178656 47.6342698,39.689212 47.6342698,39.115132 C47.6342698,38.4547497 47.0652171,37.9111293 46.3645841,37.9111293 Z M20.9425232,37.9111293 C20.240621,37.9111293 19.6715682,38.4530575 19.6715682,39.115132 C19.6715682,39.6930195 20.1543111,40.3178656 20.9425232,40.3178656 C21.7476588,40.3178656 22.2122089,39.689212 22.2122089,39.115132 C22.2122089,38.4547497 21.6431562,37.9111293 20.9425232,37.9111293 Z M32.0202242,34.189551 C32.5308909,34.189551 32.9467859,34.5829883 32.9467859,35.0661124 C32.9467859,35.5500825 32.5308909,35.9435198 32.0202242,35.9435198 C31.5099806,35.9435198 31.0945087,35.5500825 31.0945087,35.0661124 C31.0945087,34.5829883 31.5099806,34.189551 32.0202242,34.189551 Z M39.6077863,12.42845 C43.9084056,13.643029 46.7336454,17.0837015 46.7336454,17.0837015 C46.7336454,17.0837015 47.7208945,17.1052771 48.2724185,17.1221992 C48.2724185,17.1221992 50.2109936,21.0498032 52.8464753,21.0498032 C54.5724707,21.0498032 55.5783153,19.8288785 55.5783153,18.5567646 C55.5783153,16.703038 53.3604536,15.1096297 49.5251571,14.3359752 L49.1924704,14.2716825 L49.9586872,13.0101449 C54.9532547,13.7424459 57.9999494,15.8767375 57.9999494,19.2446453 C57.9999494,22.0642792 54.8006876,23.951509 51.2164155,23.951509 C47.3578606,23.951509 45.1589493,22.7491985 45.0520254,22.703509 C45.1248613,22.7722993 47.478729,25.0004934 49.4982034,28.1872323 L49.6611601,28.4476934 L47.2154364,30.7677042 C44.1894504,27.8283469 39.8288185,26.1293747 35.5332707,26.1293747 C29.9593185,26.1293747 25.797691,28.5668919 23.2419038,31.1929197 L23.0434709,31.4005883 L20.7853922,29.259528 C21.5127276,26.9513625 22.9936013,23.402812 25.5754098,21.2638669 C25.5182034,21.2849856 23.8091698,22.0012669 22.6110068,23.1941264 L22.4640537,23.3457002 L22.1876578,22.8718832 C24.8163775,18.8220175 29.5484957,17.3417625 33.4184614,17.3417625 C36.9765308,17.3417625 38.9928687,18.1654425 40.9339796,19.2767971 C40.5405773,18.8184517 40.12544,18.4362555 39.7763947,18.1464595 L39.6077863,18.0093368 L39.6077863,12.42845 Z" id="path-3"></path>
    </defs>
    <g id="Animal-planet-White" stroke="none" stroke-width="1" fill="none" fill-rule="evenodd">
        <g id="*atoms/Logos/Circular/animal-planet">
            <mask id="mask-2" fill="white">
                <use xlink:href="#path-1"></use>
            </mask>
            <g id="🎨-Color-Background"></g>
            <mask id="mask-4" fill="white">
                <use xlink:href="#path-3"></use>
            </mask>
            <use id="🎨-Color-Logo" fill="#FFFFFF" xlink:href="#path-3"></use>
        </g>
    </g>
</svg>