<?xml version="1.0" encoding="UTF-8"?>
<svg width="72px" height="72px" viewBox="0 0 72 72" version="1.1" xmlns="http://www.w3.org/2000/svg" xmlns:xlink="http://www.w3.org/1999/xlink">
    <!-- Generator: Sketch 63.1 (92452) - https://sketch.com -->
    <title>Discovery Turbo White</title>
    <desc>Created with Sketch.</desc>
    <defs>
        <circle id="path-1" cx="36" cy="36" r="36"></circle>
        <path d="M66.8907254,42.3791181 C65.7232339,44.7618777 63.4723186,45.9473684 61.0080814,45.9473684 C58.6688949,45.9473684 56.3318102,44.7910669 55.1133525,42.3791181 L55.1133525,42.3791181 Z M13.0048441,42.3791181 L13.7672339,45.1659175 C12.5829288,45.540256 11.1206746,45.8121764 9.58748814,45.8121764 C7.32343729,45.8121764 5.99989492,44.5206828 5.99989492,42.3832148 L5.99989492,42.3832148 L5.99989492,42.3791181 L13.0048441,42.3791181 Z M52.130522,42.3791181 C51.0570814,44.747027 48.9075729,45.7773542 46.3209119,45.7773542 C45.1371322,45.7773542 43.8829458,45.3354196 43.0123186,44.3178947 L43.0123186,44.3178947 L43.0123186,45.4383499 L39.3206915,45.4383499 L39.3206915,42.3791181 Z M27.6137254,42.3791181 L27.6137254,45.4383499 L23.8522169,45.4383499 L23.8522169,44.2840967 C22.9463864,45.3354196 21.7967593,45.7773542 20.2294203,45.7773542 C18.1476915,45.7773542 16.1300644,44.6000569 15.3639966,42.3791181 L15.3639966,42.3791181 L27.6137254,42.3791181 Z M33.2751661,42.3791181 L33.2751661,45.4383499 L29.4096237,45.4383499 L29.4096237,42.3791181 L33.2751661,42.3791181 Z M9.72672542,35.7818492 L9.72672542,40.9539687 C9.72672542,41.2822191 9.80501356,41.3861735 9.91797966,41.501394 L9.91797966,41.501394 L5.99989492,41.5024182 L5.99989492,35.7818492 L9.72672542,35.7818492 Z M67.3100136,35.7798009 C67.5816576,36.573542 67.7303525,37.4461451 67.7303525,38.3781508 C67.7303525,39.5574964 67.5574881,40.5985775 67.2495898,41.5024182 L67.2495898,41.5024182 L63.0488271,41.5024182 C63.6136576,40.8833001 63.9677932,39.8831863 63.9677932,38.3781508 C63.9677932,37.2356757 63.6598949,36.3605121 63.111878,35.780825 L63.111878,35.780825 Z M43.8556237,35.7818492 C43.3086576,36.3553912 42.9629288,37.2689616 42.9629288,38.6490469 C42.9629288,39.9676814 43.3212678,40.9022475 43.8966068,41.5024182 L43.8966068,41.5024182 L39.3206915,41.5003698 L39.3206915,35.7818492 Z M52.5030475,35.7818492 C52.7421153,36.5822475 52.8692678,37.4732859 52.8692678,38.4452347 C52.8692678,39.6163869 52.7263525,40.6313514 52.4610136,41.5024182 L52.4610136,41.5024182 L48.1572678,41.5029303 C48.737861,40.8833001 49.1051322,39.8831863 49.1051322,38.3781508 C49.1051322,37.2361878 48.7856746,36.3615363 48.2213695,35.7818492 L48.2213695,35.7818492 Z M34.2950136,35.7813371 C33.5820136,36.3241536 33.2751661,36.9908962 33.2751661,37.9029303 L33.2751661,37.9029303 L33.2751661,41.5029303 L29.4096237,41.5029303 L29.4096237,35.7818492 Z M27.6137254,35.7818492 L27.6137254,41.5019061 L23.1103186,41.5029303 C23.5921322,41.0604836 23.8522169,40.4357326 23.8522169,39.6670839 L23.8522169,39.6670839 L23.8522169,35.7818492 L27.6137254,35.7818492 Z M18.8013186,35.7818492 L18.8013186,39.836074 C18.8013186,40.5821906 18.9762847,41.1229587 19.2521322,41.5008819 L15.1396407,41.5029303 C15.0750136,41.1393457 15.0403356,40.7542532 15.0403356,40.3466287 L15.0403356,35.7818492 L18.8013186,35.7818492 Z M58.878539,35.7818492 C58.3483864,36.3553912 58.0126407,37.2689616 58.0121153,38.6490469 C58.0121153,39.9661451 58.3594203,40.9001991 58.9158441,41.5003698 L58.9158441,41.5003698 L54.7403017,41.5003698 C54.4282,40.6093314 54.2511322,39.5815647 54.2511322,38.4114367 C54.2511322,37.4650925 54.4029797,36.5827596 54.6804034,35.7818492 L54.6804034,35.7818492 Z M9.72725085,27.438862 L9.72725085,31.859744 L13.2444373,31.859744 L13.2444373,34.9066856 L5.99989492,34.9066856 L5.99989492,28.5936273 L9.72725085,27.438862 Z M61.0080814,31.2488193 C63.6246915,31.2488193 65.8272678,32.6688478 66.9437932,34.9066856 L66.9437932,34.9066856 L55.0497763,34.9066856 C56.1852169,32.6545092 58.4140644,31.2488193 61.0080814,31.2488193 Z M43.0123186,27.438862 L43.0123186,32.7763869 C43.9880305,31.79266 45.3110475,31.3517496 46.6345898,31.3517496 C49.1839458,31.3517496 51.1852847,32.6632148 52.1809627,34.9066856 L52.1809627,34.9066856 L39.3206915,34.9066856 L39.3206915,27.438862 L43.0123186,27.438862 Z M33.2404881,33.2178094 C34.3901153,31.826458 35.9222508,31.4526316 37.5237424,31.6569559 L37.5237424,31.6569559 L37.5237424,34.9066856 L29.4096237,34.9066856 L29.4096237,31.859744 L33.2404881,31.859744 Z M18.8013186,31.859744 L18.8013186,34.9066856 L15.0403356,34.9066856 L15.0403356,31.859744 L18.8013186,31.859744 Z M27.6137254,31.859744 L27.6137254,34.9066856 L23.8522169,34.9066856 L23.8522169,31.859744 L27.6137254,31.859744 Z M34.9328736,26.9277562 L35.6065025,28.9721501 L36.3284729,26.9277562 L37,26.9277562 C37,26.9277562 35.7662397,30.0929503 35.6065025,30.416078 C35.4583251,30.7111076 35.4099836,30.7693851 35.194023,30.9051923 C35.0659442,30.9859743 34.7330378,30.9982672 34.4788259,30.9998038 L34.2613465,30.9998932 L34.2613465,30.4764368 C34.3916585,30.4852825 34.7337274,30.4915265 34.8819048,30.4165983 C35.0535698,30.2939035 35.2414082,29.8230737 35.2772592,29.7301347 L35.2833498,29.7141469 L35.2907061,29.6969759 L34.244532,26.9277562 L34.9328736,26.9277562 Z M14.3892939,26 C15.5631527,26 16.373399,26.796632 16.373399,27.8414634 C16.373399,28.8868152 15.5631527,29.6938539 14.3892939,29.6938539 L13.4088568,29.6936824 C13.1567151,29.8858556 12.8417657,30 12.5,30 C11.6721948,30 11,29.3286269 11,28.5010589 C11,27.673491 11.6721948,27 12.5,27 C13.3288638,27 14,27.673491 14,28.5010589 C14,28.7156424 13.9548772,28.9197244 13.873582,29.1043237 L14.3892939,29.1037947 C15.1732677,29.1037947 15.6861084,28.5808586 15.6861084,27.8518701 C15.6861084,27.1239223 15.1732677,26.5916202 14.3892939,26.5916202 L13.6557635,26.5916202 L13.6557635,27.1338086 C13.5475205,27.002164 13.4203612,26.8824871 13.2800657,26.7867456 C13.1917898,26.7253461 13.097734,26.6743534 13,26.6322063 L13,26 L14.3892939,26 Z M30.4822989,26.8699991 C30.7061412,26.8699991 30.9026601,26.9095445 31.0697537,26.9917574 C31.2389491,27.0718889 31.3797701,27.1811591 31.4916913,27.3185274 C31.6041379,27.4558956 31.6887356,27.6145976 31.7454844,27.7961943 C31.8017077,27.9783114 31.8300821,28.1692741 31.8300821,28.3696028 C31.8300821,28.3971806 31.8290312,28.4268396 31.8279803,28.4564987 L31.8200985,28.5485979 L31.8200985,28.5485979 L29.7503448,28.5485979 C29.7860755,28.7780653 29.8780296,28.9523774 30.025156,29.0756966 C30.1738588,29.1958939 30.3514614,29.256773 30.5611166,29.256773 C30.7224302,29.256773 30.8595731,29.2281546 30.9772742,29.1724788 C31.0939245,29.1162827 31.2095238,29.0325089 31.3235468,28.9242793 L31.7034483,29.256773 C31.5678818,29.4144343 31.4060427,29.5424366 31.2205583,29.6366171 C31.0334975,29.7318383 30.8096552,29.779709 30.5506076,29.779709 C30.3483087,29.779709 30.1580952,29.743806 29.9815435,29.6746015 C29.8065681,29.603836 29.6531363,29.5039318 29.5233498,29.3769702 C29.3946141,29.25209 29.2911002,29.0991117 29.2175369,28.9211573 C29.1423974,28.7442436 29.1061412,28.5465165 29.1061412,28.3326591 L29.1061412,28.3227727 C29.1061412,28.1219237 29.1392447,27.9325219 29.2065025,27.7566489 C29.2748112,27.5802556 29.3693924,27.4267569 29.4928736,27.2951123 C29.6153038,27.162427 29.7592775,27.0588805 29.9263711,26.983432 C30.0934647,26.9085039 30.2789491,26.8699991 30.4822989,26.8699991 Z M24.6271921,26.8699991 C24.8452545,26.8699991 25.0449261,26.9085039 25.2283087,26.983432 C25.4106404,27.0588805 25.5693268,27.162427 25.702266,27.2951123 C25.8367816,27.4267569 25.9402956,27.5802556 26.0133333,27.7535269 C26.0900493,27.9283593 26.1268309,28.1156796 26.1268309,28.3160084 L26.1268309,28.3269354 C26.1268309,28.5246625 26.0884729,28.7109422 26.0107061,28.8868152 C25.9355665,29.0632086 25.8299507,29.2172276 25.6975369,29.3488722 C25.5635468,29.4805168 25.4038095,29.5856243 25.2199015,29.6641948 C25.0359934,29.7401636 24.8336946,29.779709 24.6166831,29.779709 C24.4038752,29.779709 24.2052545,29.7412043 24.0229228,29.6657558 C23.8390148,29.5903073 23.6813793,29.4878014 23.5473892,29.3566772 C23.4149754,29.2265936 23.310936,29.0746559 23.2352709,28.8982626 C23.1606568,28.7213489 23.1238752,28.5350692 23.1238752,28.3378624 L23.1238752,28.3269354 C23.1238752,28.1260863 23.1617077,27.937205 23.2378982,27.7623726 C23.3146141,27.5870199 23.4207553,27.4335213 23.5536946,27.2997953 C23.6866338,27.16711 23.8447947,27.0635635 24.0287028,26.984993 C24.2110345,26.9085039 24.4107061,26.8699991 24.6271921,26.8699991 Z M21.8233826,26.8699991 C22.2960555,26.8699991 22.610548,27.0245834 22.8583823,27.2577389 L22.9483744,27.3487068 L22.5474548,27.7774623 C22.3493596,27.5698489 22.1423317,27.4283179 21.8181281,27.4283179 C21.3473235,27.4283179 21.0073563,27.8294957 21.0073563,28.3206914 C21.0073563,28.8228141 21.3531034,29.2229512 21.8491297,29.2229512 C22.1099038,29.2229512 22.3116129,29.1189693 22.4916482,28.9595012 L22.5800328,28.8753679 L22.9693924,29.2557323 C22.6930049,29.5616889 22.3661741,29.778148 21.8181281,29.778148 C20.9800328,29.778148 20.3621018,29.1282504 20.3621018,28.3321388 C20.3621018,27.5339458 20.9800328,26.8699991 21.8233826,26.8699991 Z M18.9728079,26.8793651 C19.150936,26.8793651 19.3306404,26.9085039 19.5124466,26.9647 C19.6336508,27.0018172 19.7466813,27.0491098 19.8529392,27.1054986 L20.007422,27.1967691 L19.7510016,27.6520617 C19.6159606,27.5698489 19.4803941,27.5048071 19.3411494,27.457977 C19.2013793,27.4111469 19.07422,27.3877318 18.9586207,27.3877318 C18.8319869,27.3877318 18.7363547,27.4137486 18.6669951,27.4652617 C18.6149754,27.5058477 18.5827586,27.5540437 18.5699015,27.6096301 L18.5634811,27.6676717 L18.5634811,27.6775581 C18.5634811,27.7269899 18.5813465,27.7706979 18.6160263,27.8060807 C18.6501806,27.8445854 18.6985222,27.8778868 18.7578982,27.9070256 C18.8156979,27.9366846 18.8829557,27.9642623 18.9596716,27.9887181 C19.0358621,28.0142144 19.1146798,28.0407515 19.1966502,28.0683292 C19.3006897,28.0995493 19.4036782,28.1359727 19.5061412,28.1786401 C19.6107061,28.2213075 19.7026601,28.2738613 19.7862069,28.3352608 C19.8697537,28.3961399 19.9380624,28.471068 19.9916585,28.5595249 C20.0322496,28.625087 20.0574713,28.702064 20.0675452,28.7900168 L20.072578,28.8816119 L20.072578,28.8925389 C20.072578,29.0392732 20.04578,29.1683161 19.9916585,29.2781067 C19.9380624,29.3873769 19.8644992,29.4773948 19.7714943,29.5497212 C19.6758621,29.6204867 19.5660427,29.6756422 19.4373071,29.7141469 C19.3090969,29.7505703 19.1709031,29.7682617 19.0264039,29.7682617 C18.8235796,29.7682617 18.6181281,29.7333993 18.4105747,29.6641948 C18.2545156,29.6107304 18.1070279,29.5391194 17.9683333,29.4487032 L17.832578,29.3519942 L18.12,28.9185556 C18.2734319,29.0309478 18.4279146,29.1162827 18.586601,29.1740398 C18.7442365,29.2333579 18.896092,29.2624967 19.0426929,29.2624967 C19.1814122,29.2624967 19.2886043,29.2338783 19.3647947,29.1797635 C19.4227258,29.1391774 19.4587849,29.0877619 19.4731938,29.0257364 L19.4803941,28.9601824 L19.4803941,28.9508164 C19.4803941,28.8982626 19.4635796,28.8514325 19.4299507,28.8129277 C19.3947455,28.774423 19.3495567,28.7395606 19.2896552,28.7099015 C19.23133,28.6802425 19.1656486,28.6542257 19.0878818,28.6308107 C19.0116913,28.6073957 18.9318227,28.5850213 18.8503777,28.5595249 C18.7468637,28.5314268 18.6438752,28.4981254 18.5393103,28.45858 C18.4331691,28.4205956 18.3396388,28.3696028 18.2555665,28.3087237 C18.1714943,28.2473243 18.1047619,28.1708351 18.0506404,28.0792562 C18.0104433,28.0101819 17.9856158,27.9296926 17.9757143,27.83713 L17.9707718,27.7405186 L17.9707718,27.7306322 C17.9707718,27.5974266 17.9959934,27.4777497 18.0480131,27.3736828 C18.0984565,27.2696159 18.1699179,27.1811591 18.2613465,27.1077919 C18.3517241,27.0333841 18.4578654,26.977188 18.5813465,26.9386832 C18.7043021,26.9001785 18.8346141,26.8793651 18.9728079,26.8793651 Z M26.8461741,26.9277562 L27.6028243,28.9773534 L28.3652545,26.9277562 L29.0436125,26.9277562 L27.8907718,29.7370416 L27.3106732,29.7370416 L26.1520525,26.9277562 L26.8461741,26.9277562 Z M32.9577011,26.9277562 L32.9577011,27.3882522 C33.1710345,27.1273695 33.4998276,27.0118959 33.7304095,26.9609601 L33.8225944,26.9428459 L34.0432841,27.476709 C33.7632184,27.5178154 33.2220033,27.6609074 33.0270608,28.1692741 C32.9884401,28.270349 32.9687356,28.3875218 32.9612972,28.5188169 L32.9577011,28.6547461 L32.9577011,29.7162282 L32.3129721,29.7162282 L32.3129721,26.9277562 L32.9577011,26.9277562 Z M17.3917241,26.9277562 L17.3917241,29.7162282 L16.7469951,29.7162282 L16.7469951,26.9277562 L17.3917241,26.9277562 Z M24.6166831,27.4298789 C24.4884729,27.4298789 24.3728736,27.4522533 24.2677833,27.5001241 C24.1626929,27.5479948 24.0728407,27.6114756 23.9987521,27.6916071 C23.9246634,27.7706979 23.8663383,27.8638378 23.8274548,27.969986 C23.788046,28.0787359 23.7691297,28.1937298 23.7691297,28.3160084 L23.7691297,28.3269354 C23.7691297,28.447653 23.7906732,28.5621266 23.8332348,28.6708764 C23.8752709,28.780667 23.9351724,28.8753679 24.0124138,28.958101 C24.0880788,29.0413545 24.1784565,29.1063963 24.2824959,29.1537468 C24.3886371,29.2005769 24.503711,29.2255529 24.6271921,29.2255529 C24.758555,29.2255529 24.8767816,29.2005769 24.9823974,29.1537468 C25.0869622,29.1063963 25.1768144,29.0413545 25.251954,28.9601824 C25.3265681,28.8805712 25.382266,28.78535 25.4216749,28.6776408 C25.4605583,28.5704519 25.4805255,28.4575393 25.4805255,28.3378624 L25.4805255,28.3269354 C25.4805255,28.2041365 25.4584565,28.0875816 25.4164204,27.9788317 C25.3743842,27.8695615 25.3134319,27.7743403 25.2393432,27.6947291 C25.1615764,27.6114756 25.0706732,27.5479948 24.9666338,27.5001241 C24.8625944,27.4522533 24.7454187,27.4298789 24.6166831,27.4298789 Z M30.475468,27.3934555 C30.2768473,27.3934555 30.1134319,27.459538 29.9815435,27.5958656 C29.8528079,27.7321932 29.7729392,27.8414634 29.7450903,28.0589632 L31.1900821,28.0589632 C31.1795731,27.9569777 31.1575041,27.9283593 31.1217734,27.8383414 C31.0849918,27.7493642 31.0371757,27.6692327 30.9772742,27.6036706 C30.9168473,27.5375881 30.8438095,27.484514 30.7618391,27.4480906 C30.6772414,27.4111469 30.5816092,27.3934555 30.475468,27.3934555 Z" id="path-3"></path>
    </defs>
    <g id="Discovery-Turbo-White" stroke="none" stroke-width="1" fill="none" fill-rule="evenodd">
        <g id="*atoms/Logos/Circular/turbo">
            <mask id="mask-2" fill="white">
                <use xlink:href="#path-1"></use>
            </mask>
            <g id="🎨-Color-Background"></g>
            <mask id="mask-4" fill="white">
                <use xlink:href="#path-3"></use>
            </mask>
            <use id="🎨-Color-Logo" fill="#FFFFFF" xlink:href="#path-3"></use>
        </g>
    </g>
</svg>