<?xml version="1.0" encoding="UTF-8"?>
<svg width="72px" height="72px" viewBox="0 0 72 72" version="1.1" xmlns="http://www.w3.org/2000/svg" xmlns:xlink="http://www.w3.org/1999/xlink">
    <!-- Generator: Sketch 63.1 (92452) - https://sketch.com -->
    <title>Discovery Kids White</title>
    <desc>Created with Sketch.</desc>
    <defs>
        <circle id="path-1" cx="36" cy="36" r="36"></circle>
    </defs>
    <g id="Discovery-Kids-White" stroke="none" stroke-width="1" fill="none" fill-rule="evenodd">
        <g id="*atoms/Logos/Circular/turbo-Copy">
            <mask id="mask-2" fill="white">
                <use xlink:href="#path-1"></use>
            </mask>
            <g id="🎨-Color-Background"></g>
        </g>
        <g id="*atoms/Logos/auto-width/dkids" transform="translate(12.000000, 16.000000)" fill="#FFFFFF">
            <g id="*atoms/logo/dkids_play_outline">
                <path d="M20.405927,0.733333333 C24.1842516,0.733333333 27.2584893,3.75363701 27.2584893,7.46608789 L27.2584893,7.46608789 L27.2584893,12.0302429 L31.953289,7.41780815 C33.2473585,6.14616649 34.9683044,5.44576635 36.7988745,5.44576635 C38.6294445,5.44576635 40.3502504,6.14616649 41.6445999,7.41808324 C42.9386695,8.6894498 43.6517168,10.3796534 43.6517168,12.1783834 C43.6517168,13.9768382 42.9386695,15.667592 41.6445999,16.9389586 L41.6445999,16.9389586 L36.0154045,22.4696713 L41.6445999,27.9999714 C42.9386695,29.2716131 43.6517168,30.9620918 43.6517168,32.7604091 C43.6517168,34.559139 42.9386695,36.2498928 41.6445999,37.5213969 C40.3502504,38.7926259 38.6294445,39.4930261 36.7988745,39.4930261 C34.9683044,39.4930261 33.2474985,38.7926259 31.953289,37.5213969 L31.953289,37.5213969 L27.2579293,32.9081368 C27.2367885,36.6028439 24.1716511,39.6033405 20.405927,39.6033405 C16.6274624,39.6033405 13.5532247,36.5827617 13.5532247,32.8703108 L13.5532247,32.8703108 L13.5532247,23.2832744 C13.771353,23.1847892 13.9865413,23.0797017 14.1976693,22.9662237 L14.1976693,22.9662237 L18.4763731,24.1794069 C18.526215,24.1932994 18.576337,24.2003144 18.6263189,24.2003144 C18.7670242,24.2003144 18.9050695,24.1457074 19.0072734,24.045159 C19.1461588,23.9081601 19.1985208,23.709264 19.1441987,23.5238478 L19.1441987,23.5238478 L17.9579333,19.4847178 C18.9808124,17.8846088 19.5198331,16.0453019 19.5198331,14.147124 C19.5198331,10.2539335 17.2545464,6.87325116 13.95238,5.20367989 C14.9004962,2.60097535 17.4350133,0.733333333 20.405927,0.733333333 Z M9.08548566,5.30286656 C13.9690126,5.30286656 17.9418047,9.20609807 17.9418047,14.0040866 C17.9418047,15.6469734 17.4753068,17.238967 16.5900529,18.623674 L16.5900529,18.623674 L17.6167122,22.1196225 C17.663614,22.2801424 17.6183923,22.4522163 17.4982677,22.5707837 C17.4097843,22.6578523 17.2902197,22.7050316 17.1684151,22.7050316 C17.1252934,22.7050316 17.0818917,22.699117 17.0386301,22.6870127 L17.0386301,22.6870127 L13.3354883,21.6369627 C12.0359586,22.3359873 10.5713625,22.7050316 9.08548566,22.7050316 C4.20223875,22.7050316 0.229166667,18.801525 0.229166667,14.0040866 C0.229166667,9.20609807 4.20223875,5.30286656 9.08548566,5.30286656 Z M9.12146704,8.2508194 L9.0497843,8.2508194 C8.15697012,8.2508194 7.43048232,8.96442426 7.43048232,9.84157503 L7.43048232,9.84157503 L7.43048232,12.3955872 L4.99228899,12.3955872 C4.09961482,12.3955872 3.37312701,13.109192 3.37312701,13.9863428 C3.37312701,14.8634936 4.09961482,15.5769609 4.99228899,15.5769609 L4.99228899,15.5769609 L7.43048232,15.5769609 L7.43048232,18.1663232 C7.43048232,19.0434739 8.15697012,19.7570788 9.0497843,19.7570788 L9.0497843,19.7570788 L9.12146704,19.7570788 C10.0141412,19.7570788 10.740629,19.0434739 10.740629,18.1663232 L10.740629,18.1663232 L10.740629,15.5769609 L13.1786823,15.5769609 C14.0713565,15.5769609 14.7977043,14.8634936 14.7977043,13.9862053 C14.7977043,13.109192 14.0713565,12.3955872 13.1786823,12.3955872 L13.1786823,12.3955872 L10.740629,12.3955872 L10.740629,9.84157503 C10.740629,8.96442426 10.0141412,8.2508194 9.12146704,8.2508194 L9.12146704,8.2508194 Z" id="🚺-logo-kids-gray_color"></path>
            </g>
        </g>
    </g>
</svg>