<svg width="72" height="72" viewBox="0 0 72 72" fill="none" xmlns="http://www.w3.org/2000/svg">
<path d="M9.83594 46.7477V50.008C9.40378 49.4458 8.77937 48.94 7.79344 48.94C6.36057 48.94 5 50.0777 5 52.0909C5 54.1042 6.37536 55.2418 7.79344 55.2418C8.77115 55.2418 9.39721 54.736 9.84088 54.1042V55.1158H11.2179V46.7477H9.83594ZM8.1188 54.0445C7.18546 54.0445 6.38851 53.2866 6.38851 52.0926C6.38851 50.8986 7.17396 50.1407 8.1188 50.1407C9.06364 50.1407 9.85731 50.9102 9.85731 52.0926C9.85731 53.275 9.03899 54.0494 8.12208 54.0494L8.1188 54.0445ZM12.8841 49.0694V55.1307H14.2594V49.0677L12.8841 49.0694ZM12.8266 46.7477V48.0744H14.3055V46.7477H12.8266ZM20.1898 53.3363V53.3148C20.1898 52.2236 19.2038 51.8223 18.3231 51.547C17.6181 51.3165 16.9691 51.1324 16.9691 50.6962V50.6747C16.9691 50.3181 17.2764 50.0661 17.812 50.0661C18.305 50.0661 18.9261 50.2833 19.5062 50.6399L20.0534 49.6448C19.3966 49.2103 18.6317 48.9718 17.8466 48.9566C16.6519 48.9566 15.7104 49.6564 15.7104 50.8057V50.8289C15.7104 51.9898 16.6963 52.3546 17.5869 52.6083C18.2919 52.8256 18.9294 52.9864 18.9294 53.4574V53.4806C18.9294 53.8819 18.5893 54.134 17.9961 54.134C17.2767 54.1043 16.5856 53.8428 16.0242 53.3878L15.4097 54.3297C16.1371 54.9075 17.0326 55.228 17.9583 55.2418C19.2088 55.2418 20.1881 54.6116 20.1881 53.3363H20.1898ZM26.641 54.129L25.8112 53.2999C25.379 53.7476 24.9008 54.0577 24.2518 54.0577C23.1952 54.0577 22.4541 53.1854 22.4541 52.0942C22.4541 51.003 23.1837 50.154 24.1844 50.154C24.8778 50.154 25.3215 50.4641 25.7421 50.9118L26.595 49.9815C26.033 49.3662 25.3313 48.94 24.1926 48.94C23.3615 48.9387 22.564 49.2706 21.9754 49.8628C21.3868 50.4549 21.0554 51.2588 21.0541 52.0976C21.0528 52.9363 21.3817 53.7412 21.9684 54.3352C22.5551 54.9292 23.3517 55.2637 24.1827 55.265C25.3543 55.2667 26.0478 54.7957 26.6393 54.129H26.641ZM30.4466 48.94C30.0277 48.9312 29.6113 49.007 29.2218 49.163C28.8324 49.319 28.4778 49.5521 28.1789 49.8484C27.88 50.1448 27.6429 50.4985 27.4815 50.8888C27.3201 51.279 27.2377 51.6979 27.2391 52.1208C27.2391 53.8538 28.5931 55.2716 30.4253 55.2716C32.2574 55.2716 33.6443 53.8372 33.6443 52.1042C33.6443 50.3712 32.2903 48.94 30.4466 48.94ZM30.4466 54.061C29.3785 54.061 28.6161 53.1771 28.6161 52.0976C28.6161 51.018 29.321 50.1573 30.4236 50.1573C31.5032 50.1573 32.2657 51.0412 32.2657 52.1208C32.2657 53.2004 31.5624 54.061 30.4466 54.061ZM38.7382 49.0677L37.1115 53.5204L35.4962 49.0677H34.0173L36.4821 55.1738H37.7227L40.1793 49.0677H38.7382ZM46.3906 52.2186C46.3906 50.4624 45.4228 48.9467 43.5117 48.9467C41.7946 48.9467 40.577 50.3712 40.577 52.1158C40.577 53.998 41.9195 55.2667 43.6596 55.2667C44.1296 55.2832 44.597 55.1892 45.0248 54.9921C45.4526 54.7949 45.829 54.5 46.1244 54.1307L45.3176 53.4077C44.8394 53.8786 44.3613 54.1307 43.6908 54.1307C42.8035 54.1307 42.1216 53.5801 41.9622 52.5934H46.3758C46.3791 52.4541 46.3906 52.3397 46.3906 52.212V52.2186ZM41.9425 51.6796C42.0674 50.7377 42.6589 50.0843 43.5002 50.0843C44.4106 50.0843 44.9347 50.7841 45.0251 51.6796H41.9425ZM49.0625 52.8272C49.0625 51.2203 49.9038 50.4276 51.1083 50.4276H51.1888V48.9583C50.1306 48.9135 49.4371 49.5321 49.0625 50.4392V49.0744H47.6855V55.1357H49.0625V52.8272ZM58.0754 49.0677H56.6426L55.0832 53.5669L53.3775 49.0677H51.9101L54.4127 55.1274C54.186 55.6564 53.9461 55.8289 53.5599 55.8289C53.2756 55.8215 52.9976 55.7423 52.7515 55.5983L52.2848 56.6315C52.7181 56.8802 53.2094 57.0073 53.7078 56.9997C54.674 56.9997 55.208 56.5403 55.6796 55.2998L58.0754 49.0677ZM63.9335 51.5934H67.4417V50.3612H63.9335V46.7477H62.7126V50.3563H59.206V51.5934H62.7126V55.1323H63.9335V51.5934Z" fill="white"/>
<path d="M37.5733 33.5372C37.5733 34.9895 37.1465 36.4092 36.3469 37.6166C35.5473 38.8241 34.4108 39.7651 33.0811 40.3205C31.7515 40.876 30.2885 41.021 28.8773 40.7372C27.466 40.4534 26.1698 39.7535 25.1527 38.7261C24.1356 37.6987 23.4433 36.39 23.1634 34.9654C22.8834 33.5408 23.0284 32.0645 23.58 30.7231C24.1316 29.3817 25.065 28.2356 26.2622 27.4297C27.4593 26.6238 28.8664 26.1943 30.3054 26.1956C32.2336 26.1974 34.0822 26.9717 35.445 28.3483C36.8078 29.7249 37.5733 31.5912 37.5733 33.5372V33.5372ZM47.4802 20.6733C45.0066 18.307 41.7259 16.9918 38.3177 17H29.2883L29.2801 24.1592C27.0063 24.432 24.9095 25.5335 23.3838 27.2568C21.8581 28.9801 21.0087 31.2064 20.995 33.5173C20.9812 34.8154 21.2396 36.1017 21.7533 37.2919C22.267 38.482 23.0245 39.549 23.9758 40.4227C25.7164 42.0204 27.979 42.9153 30.3317 42.9368H38.3177C41.7154 42.9627 44.9953 41.6813 47.49 39.3531C50.0403 36.9451 51.4469 33.6118 51.4469 29.9684C51.4522 28.2274 51.1029 26.5039 50.4205 24.9049C49.7381 23.3059 48.7373 21.8656 47.4802 20.6733V20.6733ZM50.5316 29.9734C50.5316 33.3581 49.2302 36.4509 46.864 38.6847C44.5393 40.8518 41.4839 42.0437 38.3193 42.018H30.3054C28.0772 42.0319 25.9347 41.1518 24.3494 39.5715C22.764 37.9911 21.8657 35.8399 21.852 33.5911C21.8382 31.3423 22.7103 29.1801 24.2762 27.5801C25.8421 25.9801 27.9736 25.0735 30.2019 25.0597V17.9287H38.3177C41.4918 17.9212 44.5472 19.1462 46.8508 21.3499C48.0177 22.4556 48.9466 23.7918 49.5798 25.2753C50.213 26.7589 50.537 28.3581 50.5316 29.9734V29.9734ZM46.0752 22.1791C43.9802 20.1771 41.2028 19.0645 38.3177 19.0713H31.3308V25.131C33.0777 25.3496 34.7124 26.1164 36.0042 27.3232C37.296 28.53 38.1796 30.1158 38.5302 31.8567C38.8809 33.5977 38.6808 35.4058 37.9584 37.0258C37.2359 38.6458 36.0275 39.9958 34.5038 40.8854H38.3177C41.1966 40.9113 43.9772 39.8291 46.0933 37.8589C48.2295 35.844 49.4027 33.0496 49.4027 29.98C49.4096 28.5179 49.1182 27.07 48.5466 25.7265C47.975 24.383 47.1354 23.1726 46.0802 22.1708L46.0752 22.1791Z" fill="white"/>
</svg>
