<?xml version="1.0" encoding="UTF-8"?>
<svg width="72px" height="72px" viewBox="0 0 72 72" version="1.1" xmlns="http://www.w3.org/2000/svg" xmlns:xlink="http://www.w3.org/1999/xlink">
    <!-- Generator: Sketch 63.1 (92452) - https://sketch.com -->
    <title>Food Network White</title>
    <desc>Created with Sketch.</desc>
    <defs>
        <circle id="path-1" cx="36" cy="36" r="36"></circle>
        <path d="M49.7550074,60.125173 L50.539819,62.4415703 L51.3805791,60.125173 L52.1630915,60.125173 C52.1630915,60.125173 50.7260585,63.7113652 50.539819,64.0771529 C50.3669918,64.4119417 50.3110434,64.4778145 50.0592752,64.6316468 C49.9098237,64.7231906 49.5223996,64.7369222 49.2264786,64.7387204 L48.9732614,64.7389807 L48.9732614,64.1461256 C49.1253953,64.1558128 49.5235493,64.1627875 49.6959932,64.0779279 C49.8980488,63.9380803 50.1191064,63.3947339 50.1576288,63.2970994 L50.163508,63.2820296 L50.172705,63.2626552 L48.9537178,60.125173 L49.7550074,60.125173 Z M44.5709587,60.0593002 C44.8319239,60.0593002 45.0606995,60.1042487 45.256136,60.197633 C45.4531053,60.2886925 45.6163523,60.4119133 45.7470265,60.5680706 C45.8777007,60.7230654 45.9761854,60.9036343 46.0428637,61.108615 C46.1080092,61.3147581 46.1417316,61.5317508 46.1417316,61.7584307 C46.1417316,61.7902046 46.1405819,61.8235285 46.1386659,61.8568524 C46.1367499,61.8925012 46.1325346,61.9258251 46.1294689,61.9614739 L43.7190855,61.9614739 C43.7604721,62.2210902 43.8677705,62.419096 44.0390649,62.5582039 C44.211892,62.6953743 44.4188248,62.763572 44.663312,62.763572 C44.8514675,62.763572 45.0108824,62.731798 45.1484543,62.6682502 C45.2837271,62.6043148 45.4182333,62.509768 45.5512068,62.3869346 L45.993813,62.763572 C45.8363142,62.942591 45.647009,63.0878986 45.4312624,63.1944575 C45.2135998,63.3017914 44.9530179,63.3568146 44.6510493,63.3568146 C44.4153759,63.3568146 44.1938812,63.315741 43.9880981,63.2370811 C43.7846142,63.1568713 43.6052725,63.0441126 43.4542882,62.9003549 C43.3040704,62.7581472 43.1845092,62.5849405 43.0982872,62.3838347 C43.0109156,62.1835039 42.9687627,61.9591489 42.9687627,61.7169696 L42.9687627,61.705345 C42.9687627,61.4778901 43.0074668,61.2636098 43.0856414,61.064054 C43.1649656,60.8641107 43.2749465,60.6905165 43.4194162,60.541334 C43.5615867,60.3913765 43.7298154,60.2735805 43.9241022,60.1883333 C44.1183891,60.1030862 44.3349021,60.0593002 44.5709587,60.0593002 Z M37.7521412,60.0593002 C38.0054422,60.0593002 38.2388164,60.1030862 38.4518805,60.1883333 C38.6641782,60.2735805 38.8488848,60.3913765 39.0040844,60.541334 C39.1604336,60.6905165 39.2815276,60.8641107 39.3662167,61.0609541 C39.4555044,61.2589599 39.4984237,61.4713028 39.4984237,61.6983702 L39.4984237,61.7107698 C39.4984237,61.9343498 39.4532051,62.1455302 39.3635342,62.3446985 C39.2757794,62.5442543 39.1523862,62.719011 38.9983362,62.8681935 C38.8423703,63.0177634 38.6561308,63.1363345 38.4423003,63.2254565 C38.2277033,63.3122536 37.9920299,63.3568146 37.7398785,63.3568146 C37.4915592,63.3568146 37.2601011,63.3130285 37.0478034,63.2273939 C36.8339729,63.1417593 36.6496495,63.0255132 36.4940667,62.8774931 C36.3396336,62.7298606 36.2181564,62.5574289 36.1307848,62.3578731 C36.0441796,62.1571548 36.0004938,61.9463619 36.0004938,61.7223944 L36.0004938,61.7107698 C36.0004938,61.4829274 36.044946,61.2690346 36.1334672,61.0698663 C36.2231381,60.8718604 36.3465313,60.6978788 36.5017309,60.5467588 C36.6565472,60.3964139 36.8408707,60.2786178 37.0547012,60.1902708 C37.2673821,60.1030862 37.4999898,60.0593002 37.7521412,60.0593002 Z M34.4860526,60.0593002 C35.0437364,60.0593002 35.4120767,60.2388306 35.7022585,60.5083461 L35.7962435,60.6013945 L35.3294952,61.0873032 C35.0988035,60.8528736 34.8573819,60.6924539 34.479538,60.6924539 C33.9315494,60.6924539 33.5353115,61.1469762 33.5353115,61.70302 C33.5353115,62.271851 33.938064,62.7259857 34.5163261,62.7259857 C34.8201559,62.7259857 35.0550082,62.6078417 35.2645619,62.4271892 L35.3674328,62.3319114 L35.8207688,62.762797 C35.4988734,63.1088229 35.1183471,63.3541022 34.479538,63.3541022 C33.5038884,63.3541022 32.7846055,62.6190393 32.7846055,61.7161946 C32.7846055,60.8114124 33.5038884,60.0593002 34.4860526,60.0593002 Z M31.1655483,60.0701498 C31.3732475,60.0701498 31.5828627,60.1030862 31.7940107,60.1670216 C31.953234,60.2143918 32.1001706,60.2763655 32.2374073,60.350981 L32.3715064,60.4297377 L32.0726035,60.9454829 C31.9154879,60.8528736 31.7564563,60.779251 31.5947422,60.7257778 C31.4326448,60.6726921 31.2839598,60.646343 31.1494535,60.646343 C31.0023013,60.646343 30.8900212,60.6754045 30.8091641,60.733915 C30.7485213,60.7798323 30.711374,60.8344679 30.6965905,60.8974951 L30.6892197,60.9633073 L30.6892197,60.9745445 C30.6892197,61.0307301 30.709913,61.0799409 30.7501499,61.1202396 C30.7903869,61.1640256 30.8467186,61.2016119 30.9153129,61.2345483 C30.9827577,61.2682596 31.0609323,61.2996461 31.1506031,61.3275451 C31.2387412,61.3562192 31.3310945,61.3860557 31.4268967,61.4174421 C31.5476075,61.4530909 31.667935,61.4937771 31.7874962,61.5426004 C31.9085902,61.5906488 32.0162718,61.6503218 32.1132237,61.719682 C32.2105587,61.7886547 32.2902661,61.8735143 32.3527292,61.9738735 C32.3998638,62.0479803 32.429323,62.1351649 32.4411067,62.2349368 L32.4469985,62.3388862 L32.4469985,62.3512858 C32.4469985,62.5175177 32.4155754,62.6636003 32.3527292,62.7875962 C32.2902661,62.911592 32.2040442,63.0138886 32.0967457,63.0956483 C31.9848487,63.1762456 31.856857,63.238631 31.7074055,63.2820296 C31.5579541,63.3231032 31.3966232,63.34364 31.2287777,63.34364 C30.9919547,63.34364 30.7528324,63.3037289 30.5114109,63.2254565 C30.3294825,63.1652991 30.1574696,63.0839995 29.9956956,62.9815576 L29.8373466,62.8720683 L30.1726543,62.3807348 C30.3512296,62.5078305 30.5309545,62.6043148 30.7160444,62.6701876 C30.8996014,62.7372229 31.0766438,62.7705467 31.2467886,62.7705467 C31.4085027,62.7705467 31.533812,62.7376103 31.6223332,62.6763874 C31.6898737,62.6304702 31.7315477,62.5723471 31.7481634,62.5021817 L31.7564563,62.4280082 L31.7564563,62.4171586 C31.7564563,62.3578731 31.737679,62.3047874 31.6982085,62.2610013 C31.6572052,62.2172153 31.6050888,62.1780791 31.5349616,62.1443677 C31.4667504,62.1106564 31.3901087,62.0815948 31.3000546,62.0544708 C31.2111501,62.0281216 31.1176472,62.0025475 31.0229946,61.9738735 C30.9026671,61.9420995 30.7827227,61.9041258 30.6604791,61.8599523 C30.5374691,61.8165537 30.4282546,61.7592057 30.3309195,61.6898455 C30.2328181,61.6204853 30.1546435,61.5333007 30.0917972,61.4294542 C30.0449499,61.3515693 30.0162093,61.2603888 30.0047669,61.1554222 L29.9990607,61.0458421 L29.9990607,61.034605 C29.9990607,60.88426 30.0285678,60.7478646 30.0887316,60.630456 C30.1473625,60.5122725 30.2312852,60.4119133 30.3370509,60.3282161 C30.4428165,60.2452939 30.5662097,60.1809711 30.709913,60.1371851 C30.8532331,60.0937865 31.0049838,60.0701498 31.1655483,60.0701498 Z M40.3361182,60.125173 L41.2166883,62.445708 L42.1057764,60.125173 L42.8955698,60.125173 L41.5531893,63.3079912 L40.877209,63.3079912 L39.5275476,60.125173 L40.3361182,60.125173 Z M23.3641835,59.9486339 C24.3225887,59.9486339 25.0985865,60.6976463 25.0985865,61.6194778 C25.0985865,62.5416969 24.3225887,63.2891593 23.3641835,63.2891593 C22.4069279,63.2891593 21.6297804,62.5416969 21.6297804,61.6194778 C21.6297804,60.6976463 22.4069279,59.9486339 23.3641835,59.9486339 Z M47.4546049,60.125173 L47.4546049,60.647118 C47.7030679,60.3511263 48.0861989,60.2200831 48.3547227,60.1628735 L48.4620609,60.1426099 L48.7195772,60.7467021 C48.3930833,60.793588 47.7623216,60.9563326 47.535462,61.5317508 C47.4906266,61.6459626 47.4675622,61.7789191 47.4588322,61.9280047 L47.4546049,62.0823698 L47.4546049,63.284742 L46.7038989,63.284742 L46.7038989,60.125173 L47.4546049,60.125173 Z M29.3246132,60.125173 L29.3246132,63.284742 L28.5735239,63.284742 L28.5735239,60.125173 L29.3246132,60.125173 Z M25.8274496,59.0735332 C27.1951219,59.0735332 28.1381987,59.9763779 28.1381987,61.1605382 C28.1381987,62.3446985 27.1951219,63.2591678 25.8274496,63.2591678 L24.5072953,63.2591678 C24.7747751,63.0882861 24.996653,62.8596687 25.1556846,62.5903653 L25.8274496,62.5903653 C26.740253,62.5903653 27.3376755,61.9978976 27.3376755,61.1721628 C27.3376755,60.347203 26.740253,59.7438857 25.8274496,59.7438857 L24.9721276,59.7438857 L24.9721276,60.3584401 C24.8468183,60.2092576 24.6988997,60.0740247 24.5348864,59.9647533 C24.4321864,59.8957807 24.3225887,59.8380451 24.2087757,59.7899967 L24.2087757,59.0735332 L25.8274496,59.0735332 Z M37.7398785,60.6940039 C37.5900439,60.6940039 37.4555376,60.718803 37.333294,60.7730512 C37.210284,60.8280744 37.1060512,60.900147 37.0198292,60.990044 C36.933224,61.0799409 36.8657793,61.1849499 36.8201774,61.3058459 C36.7741924,61.4290667 36.7523494,61.5588749 36.7523494,61.6983702 L36.7523494,61.7107698 C36.7523494,61.8467777 36.777258,61.9765859 36.826692,62.1001942 C36.8757427,62.2245775 36.9462531,62.3319114 37.0351575,62.4256833 C37.1236788,62.5202301 37.2294444,62.5934652 37.3505384,62.6473259 C37.4739316,62.7004116 37.6080547,62.7286981 37.7521412,62.7286981 C37.9046583,62.7286981 38.0426135,62.7004116 38.1656235,62.6473259 C38.2874839,62.5934652 38.3920999,62.5202301 38.4790883,62.4280082 C38.5664599,62.3377238 38.6312222,62.2300024 38.6775905,62.107944 C38.7228091,61.986273 38.7461849,61.8584023 38.7461849,61.7223944 L38.7461849,61.7107698 C38.7461849,61.570887 38.7201267,61.4395289 38.6710759,61.3159205 C38.6220252,61.1919247 38.5511316,61.0845908 38.4645264,60.9939188 C38.3740891,60.900147 38.2687067,60.8280744 38.1472295,60.7730512 C38.0253691,60.718803 37.88933,60.6940039 37.7398785,60.6940039 Z M44.5636777,60.6521553 C44.3322196,60.6521553 44.1417648,60.7277152 43.9880981,60.8819351 C43.8382634,61.0365424 43.7455269,61.1605382 43.712571,61.40698 L45.3960072,61.40698 C45.3833613,61.2911214 45.3580696,61.2589599 45.3159166,61.1566634 C45.2737636,61.0559167 45.2174319,60.9648573 45.1484543,60.8908473 C45.0775607,60.8156748 44.9924884,60.7563893 44.8974526,60.7145407 C44.7989679,60.6726921 44.6870709,60.6521553 44.5636777,60.6521553 Z M19.5954095,16.011708 C20.2508048,16.011708 20.8713506,16.0728906 21.4393412,16.1952557 C21.5903556,16.2260799 21.7333135,16.2635468 21.8712958,16.3032281 L22.0749228,16.3638571 L22.1092102,16.3736351 L20.7891452,20.5844777 L20.7344821,20.5520705 C20.7077829,20.5385209 20.6812242,20.5232951 20.6522766,20.5089074 C20.451611,20.4160161 20.2302886,20.3442173 19.9961787,20.2957462 C19.8119542,20.256669 19.6165845,20.2311849 19.4127373,20.2208853 L19.2061632,20.215706 L19.179464,20.2172425 C18.887459,20.2172425 18.6031827,20.2460179 18.3286024,20.2996574 C18.1669082,20.3314128 18.0078996,20.3739084 17.8468716,20.4278066 L17.6032271,20.5172886 L17.5720311,20.5270667 C17.5584005,20.5301398 17.5446293,20.5346097 17.5318418,20.5399178 C17.3493035,20.6087831 17.1728077,20.693433 16.9933609,20.8015502 C16.8207997,20.9088292 16.6535784,21.030496 16.4968962,21.1643154 C16.2110741,21.4038774 15.966144,21.6850658 15.7479131,22.0221288 C15.5410645,22.3464803 15.3707517,22.6993278 15.2255923,23.0977131 C15.0916747,23.4582433 14.9715283,23.8717147 14.8582674,24.3629913 C14.8453394,24.4219389 14.7815423,24.7855423 14.7244903,25.1059826 C14.6853449,25.3321546 14.6479545,25.5409827 14.6317875,25.6274359 L14.6255628,25.6599783 L14.3549171,27.5602703 L17.2405394,27.5503526 L16.0513005,31.553342 L13.6910905,31.539094 L11.511873,43.5828442 L10.9492223,46.5080144 C10.8176936,47.2011376 10.7035896,47.7801372 10.5363683,48.3848391 C10.3272713,49.146688 10.093864,49.8103375 9.82237523,50.4126647 C9.53571005,51.0392973 9.21110389,51.5972042 8.82846208,52.113345 C8.43317328,52.6484831 7.9891233,53.1292832 7.46975344,53.5873145 C7.09034364,53.920606 6.68128367,54.225122 6.25479895,54.495834 C5.88817667,54.7285513 5.49738458,54.9372426 5.09141609,55.1202316 C4.33175336,53.9622325 3.63673082,52.7579971 3.01168831,51.5132528 C3.66465257,51.2180678 4.23429845,50.7507879 4.65936642,50.1445082 L4.79561697,49.9373123 L4.81908417,49.9056035 C4.82976386,49.8874443 4.84269189,49.8708216 4.85407419,49.851964 C5.06626263,49.521606 5.23966696,49.1617741 5.38721521,48.7558458 C5.52394326,48.3863756 5.64633805,47.9629866 5.76128517,47.4641669 C5.77691606,47.3815272 8.45321374,32.901022 8.69500855,31.5949893 L8.70466207,31.5428656 L6.29344254,31.545799 L7.47818477,27.56488 L9.36764556,27.5571972 L9.56915432,26.5210045 L9.60237024,26.3096068 L9.60237024,26.3096068 L9.63843174,26.0953804 L9.69773209,25.7613906 C9.80944719,25.1233037 9.93718183,24.3993097 10.0649165,23.8883374 C10.1683408,23.4613164 10.267971,23.1114023 10.3781403,22.7870508 C10.5363683,22.2980092 10.6990929,21.8679152 10.8762913,21.4734411 C11.1607082,20.8512785 11.4792719,20.3070608 11.8502503,19.8053077 C12.2418856,19.2777127 12.6775042,18.8075287 13.183946,18.3616501 C13.5488821,18.0403717 13.9496512,17.7394875 14.3754333,17.4719883 C14.8248232,17.1832567 15.3136997,16.9322405 15.8301186,16.7206158 C16.3896778,16.493905 16.968348,16.3215321 17.5499692,16.2029385 C18.0603456,16.1007999 18.5848417,16.0396955 19.1136726,16.0193393 L19.5109557,16.011708 L19.5954095,16.011708 Z M27.2236965,48.2755066 C28.4182752,48.2755066 29.0934842,49.1423996 29.0934842,50.3125515 L29.0934842,50.7886023 L26.408668,50.7886023 C26.408668,51.3365916 26.7462022,51.7386086 27.3484801,51.7386086 C27.8168405,51.7386086 28.0479994,51.6071639 28.3194882,51.3365916 L28.9703868,51.9669957 C28.5330818,52.4000231 28.1133422,52.6381882 27.3393462,52.6381882 C26.3273057,52.6381882 25.3547519,52.1801569 25.3547519,50.4522378 C25.3547519,49.0622197 26.1121663,48.2755066 27.2236965,48.2755066 Z M44.1706675,48.2755066 C44.8032982,48.2755066 45.23976,48.5219132 45.50352,48.7993302 C45.8913612,49.1991123 45.9894456,49.6843824 45.9894456,50.4522378 C45.9894456,51.2291728 45.8913612,51.7130461 45.50352,52.1159013 C45.23976,52.3933182 44.8032982,52.6381882 44.1706675,52.6381882 C43.5349453,52.6381882 43.1076174,52.3933182 42.8437168,52.1159013 C42.4567188,51.7130461 42.3579318,51.2291728 42.3579318,50.4522378 C42.3579318,49.6843824 42.4567188,49.1991123 42.8437168,48.7993302 C43.1076174,48.5219132 43.5349453,48.2755066 44.1706675,48.2755066 Z M21.9912138,48.2755066 C22.4185416,48.2755066 22.763664,48.4137961 23.0032543,48.653358 C23.3492198,48.9951703 23.4397161,49.396489 23.4397161,49.8629014 L23.4397161,52.5898568 L22.3690778,52.5898568 L22.3690778,50.0109689 C22.3690778,49.4297343 21.998802,49.2324973 21.6619704,49.2324973 C21.3242957,49.2324973 20.9441833,49.4297343 20.9441833,50.0109689 L20.9441833,52.5898568 L19.8743882,52.5898568 L19.8743882,48.3253746 L20.9198729,48.3253746 L20.9198729,48.7169153 C21.2003551,48.4237138 21.5957845,48.2755066 21.9912138,48.2755066 Z M49.9627093,48.2755066 C50.3831516,48.2755066 50.6790912,48.3820873 50.9747498,48.6761269 L50.1688553,49.4871454 C50.0030392,49.3231537 49.8639223,49.2324973 49.6000217,49.2324973 C49.2700757,49.2324973 48.9080906,49.4787642 48.9080906,50.0199088 L48.9080906,52.5898568 L47.8382955,52.5898568 L47.8382955,48.3253746 L48.8837803,48.3253746 L48.8837803,48.7335379 C49.0897857,48.4879695 49.5012346,48.2755066 49.9627093,48.2755066 Z M53.6858436,46.7389577 L53.6858436,50.0464492 L55.1107382,48.3034439 L56.404104,48.3034439 L54.8712885,50.0221438 L56.5190512,52.567926 L55.1936463,52.567926 L54.1390276,50.790977 L53.6858436,51.2980382 L53.6858436,52.567926 L52.6160485,52.567926 L52.6160485,46.7389577 L53.6858436,46.7389577 Z M32.2175725,47.1580165 L32.2175725,48.4196629 L32.9748464,48.4196629 L32.9748464,49.2298432 L32.2175725,49.2298432 L32.2175725,51.2751296 C32.2175725,51.5208378 32.3330818,51.6599653 32.5878484,51.6599653 L32.9748464,51.6599653 L32.9748464,52.5616401 L32.3901337,52.5616401 C31.5179128,52.5616401 31.1469343,51.9478587 31.1469343,51.3410615 L31.1469343,49.2298432 L30.6945935,49.2298432 L30.6945935,48.4196629 L31.1469343,48.4196629 L31.1469343,47.1580165 L32.2175725,47.1580165 Z M35.7681456,48.2755066 L36.4595146,50.9097103 L37.3324382,48.2755066 L38.1157086,48.2755066 L38.9962204,50.9097103 L39.6873083,48.2755066 L40.8165443,48.2755066 L39.5071589,52.5399888 L38.625242,52.5399888 L37.7287106,49.8635998 L36.8306336,52.5399888 L35.9494192,52.5399888 L34.6292136,48.2755066 L35.7681456,48.2755066 Z M44.1706675,49.2323576 C43.9562307,49.2323576 43.7988459,49.2981498 43.6756079,49.4213531 C43.4520372,49.6442924 43.4284295,50.0109689 43.4284295,50.4522378 C43.4284295,50.8937861 43.4520372,51.2707993 43.6756079,51.4923418 C43.7988459,51.615545 43.9562307,51.6813373 44.1706675,51.6813373 C44.3842611,51.6813373 44.5493746,51.615545 44.672472,51.4923418 C44.8937944,51.2707993 44.9196505,50.8937861 44.9196505,50.4522378 C44.9196505,50.0109689 44.8937944,49.6442924 44.672472,49.4213531 C44.5493746,49.2981498 44.3842611,49.2323576 44.1706675,49.2323576 Z M27.2236965,49.1604192 C26.8626951,49.1604192 26.6231048,49.3487163 26.5074551,49.5995928 C26.4421123,49.7560414 26.417802,49.8725398 26.408668,50.0584622 L28.0395681,50.0584622 C28.0312773,49.8725398 28.0069669,49.7560414 27.9400784,49.5995928 C27.8252718,49.3487163 27.5872273,49.1604192 27.2236965,49.1604192 Z M67.021217,17.1254685 C67.6314344,18.1622899 68.1918836,19.2326747 68.6988237,20.3331471 L68.9965368,20.9970132 L68.794112,21.0415007 C68.6620316,21.0750668 68.534781,21.1163518 68.4125268,21.1647764 C68.2263349,21.2427213 68.0477313,21.3349143 67.8750295,21.4475014 C67.706965,21.5570154 67.5404463,21.6885999 67.3801105,21.8351308 C67.0819225,22.0989982 66.8324957,22.4096604 66.6158106,22.7581777 C66.4015143,23.1072536 66.218976,23.4920893 66.0638396,23.9160371 C65.9071574,24.3348166 65.7757692,24.7928479 65.6547796,25.2750449 C65.5408161,25.7572419 65.4334572,26.2690524 65.3315787,26.8071239 C65.2691868,27.1284023 64.7430719,30.202478 64.3226297,32.6960176 C64.3210839,32.6960176 63.7501424,35.9311516 63.7501424,35.9311516 C63.7501424,35.9311516 63.7355281,36.0135665 63.7165576,36.1338364 C63.7058779,36.1941809 63.693793,36.2562016 63.6831134,36.3137523 C63.6382868,36.5737085 63.6086366,36.82235 63.5843263,37.0642866 C63.5713983,37.1731023 63.5615617,37.2683683 63.5569245,37.3393289 C63.5515846,37.4352934 63.5424507,37.6265239 63.5424507,37.6265239 C63.5462448,37.6409116 63.5484931,37.6537627 63.550882,37.6681504 C63.5484931,37.9198651 63.5569245,38.1609636 63.5972543,38.3808297 C63.6505122,38.6673263 63.7424137,38.9258856 63.8839195,39.1465899 C63.9682328,39.2651835 64.06168,39.3741388 64.1690389,39.4678683 C64.2747116,39.5615978 64.3955606,39.6401015 64.5255436,39.7043571 C64.6594612,39.7694509 64.8046206,39.8155474 64.962708,39.8486531 L65.0021069,39.8554977 L65.0021069,39.8554977 L65.0426651,39.8623423 L63.8913672,43.5319006 C63.7720639,43.5334372 63.6534632,43.5387452 63.5326141,43.5358118 C63.0984007,43.520586 62.7000204,43.4700196 62.3341007,43.3822966 C61.9722562,43.2961102 61.6392187,43.1790531 61.3342857,43.0217664 C61.2780768,42.9922926 61.2263647,42.9559741 61.171561,42.9235669 C60.9579674,42.8132148 60.7533671,42.6975545 60.5678779,42.5645732 C60.2865525,42.36119 60.0409198,42.1290314 59.8380058,41.8782946 C59.5117134,41.4677566 59.2858943,40.9879343 59.134552,40.4685807 C58.9490627,40.793491 58.725492,41.1147694 58.4563921,41.4245936 L58.2748902,41.6190019 L58.2748902,41.6190019 L58.0882241,41.8027243 L58.0761392,41.8229788 C58.0502831,41.8440714 58.0251296,41.8661419 58.0008193,41.8872345 C57.938568,41.9446455 57.8775814,41.9999613 57.8137843,42.0513658 C57.8115359,42.0529024 57.8108333,42.0565342 57.8070392,42.0573724 C57.7416964,42.1139453 57.6746674,42.1668864 57.6077788,42.2191291 C57.4116099,42.3740411 57.2161436,42.5154036 57.0192721,42.6401435 C56.6671236,42.8653177 56.3113215,43.0423002 55.9441371,43.178215 C55.5775148,43.3111963 55.1974024,43.4042274 54.798179,43.4594034 C54.3951615,43.5145795 53.9747192,43.5319006 53.5237837,43.5161161 C53.1078381,43.5001918 52.7072095,43.4503238 52.3262539,43.3632993 C51.9452984,43.2750176 51.5826107,43.1578208 51.2526647,43.0059818 C50.9196272,42.8563778 50.6183477,42.6733888 50.3507936,42.468469 C50.0846446,42.2652255 49.8527831,42.0339051 49.6633592,41.7828888 C49.3220309,41.3263941 49.1007086,40.7904179 48.9736765,40.207088 C48.8459419,39.6279488 48.8080009,38.9961478 48.8262688,38.3369683 C48.8490334,37.6803031 48.9326441,37.0029644 49.0398625,36.3250669 C49.1517181,35.6477282 49.2901324,34.9726244 49.427001,34.3195911 C49.563729,33.6710278 49.7067806,32.9960637 49.8755477,32.3308777 C50.0458605,31.6627583 50.24217,31.0020422 50.4861164,30.3710794 C50.7286576,29.7383006 51.0191169,29.1382083 51.3773079,28.5977622 C51.7324073,28.055081 52.1581894,27.5667378 52.6706737,27.1669557 C52.951999,26.9402449 53.2667687,26.7414713 53.602195,26.5660254 C53.9397292,26.3936525 54.2979202,26.250055 54.6719901,26.1367695 C55.0469032,26.0204108 55.4376953,25.9424659 55.8345299,25.8902232 C56.2329101,25.843568 56.6390192,25.8305772 57.0465334,25.8532063 C57.4678188,25.8775117 57.8632481,25.9280782 58.2250926,26.0135662 C58.5886234,26.0944445 58.9255955,26.2108032 59.2334796,26.3650168 C59.5399584,26.5168558 59.819738,26.710461 60.0759098,26.9431783 C60.3032747,27.152568 60.5063292,27.3998127 60.6940668,27.6808615 C60.7276516,27.4390646 60.7640468,27.1941945 60.8097165,26.9431783 C60.9252257,26.3105392 61.0727739,25.6468897 61.2331097,24.9643826 C61.3928834,24.2690244 61.555608,23.610683 61.7290124,22.9924315 C61.9091618,22.373342 62.1022392,21.7852628 62.3258099,21.2478897 C62.4019729,21.0626657 62.4831947,20.8858229 62.5669459,20.7112151 C62.5905537,20.6613471 62.6255437,20.5888499 62.6748669,20.4920473 C62.6832983,20.4769612 62.6915891,20.461037 62.7000204,20.4466493 C62.7326216,20.3854667 62.7683142,20.318976 62.8101898,20.2456407 C62.9022318,20.083884 62.9972248,19.9236639 63.0984007,19.7709868 C63.2854357,19.4942683 63.4929869,19.2396202 63.7181034,19.0038298 C64.4396846,18.2108308 65.5172084,17.3953424 67.021217,17.1254685 Z M25.949289,25.7869374 C26.5765799,25.7893121 27.1445704,25.8535678 27.6548063,25.9699264 C28.1688363,26.0795801 28.6220202,26.2411972 29.026443,26.4325674 C29.4310062,26.6260328 29.781609,26.8549786 30.0826074,27.0998487 C30.3852921,27.3477918 30.638513,27.6138941 30.84761,27.8889364 C31.1585855,28.2880201 31.3964895,28.7045645 31.5698938,29.1579862 C31.7409093,29.6115475 31.8496734,30.0923476 31.900683,30.6235745 C31.9546435,31.1504711 31.9493036,31.7287723 31.8984346,32.3628082 C31.8489708,32.9992189 31.751589,33.6931803 31.6185145,34.4625722 C31.4885315,35.2367136 31.3432316,35.9411514 31.1737619,36.5845464 C31.0041517,37.227662 30.8050318,37.8164396 30.5654415,38.3568858 C30.3282401,38.8988685 30.0476174,39.3954532 29.7145799,39.857256 C29.3792941,40.3197572 28.9892046,40.7544609 28.5306808,41.1656973 C28.2136629,41.4506573 27.8570177,41.7256995 27.45934,41.9857954 C27.0601166,42.239745 26.6214064,42.4808435 26.1394155,42.6803155 C25.657284,42.8836987 25.1348226,43.0492269 24.5730151,43.1739668 C24.0088187,43.289627 23.402044,43.3651973 22.758031,43.3720419 C22.1116291,43.3818199 21.5276191,43.3259454 21.0052983,43.2207617 C20.479886,43.1165557 20.0106825,42.9599674 19.6002173,42.7649654 C19.1865201,42.5737349 18.8283292,42.3478622 18.5181968,42.0953094 C18.2079239,41.8413598 17.9471148,41.5677144 17.7288839,41.2865259 C17.4096176,40.8776642 17.1684816,40.4437986 16.9943746,39.9796212 C16.822516,39.51265 16.7183891,39.0122937 16.6704711,38.4634664 C16.6256445,37.9154771 16.6347784,37.3198549 16.6956245,36.6661231 C16.7540817,36.0077818 16.8613001,35.2949627 17.0066,34.5055956 C17.1540078,33.7211175 17.3137815,33.0129081 17.4999733,32.3689544 C17.6856031,31.7196927 17.8962458,31.1346866 18.1463752,30.5942404 C18.3995961,30.0575657 18.6900554,29.565451 19.0344752,29.1089563 C19.3795976,28.6546965 19.7772752,28.230609 20.2418414,27.8299888 C20.5605457,27.5571815 20.9194392,27.2895426 21.3162738,27.0432757 C21.7139515,26.7967295 22.1512564,26.5760251 22.6272049,26.3863312 C23.1024508,26.2004088 23.6187292,26.0439601 24.1722459,25.9404526 C24.7259032,25.8345704 25.3180635,25.7779975 25.949289,25.7869374 Z M42.1128341,25.7869369 C42.740125,25.7893116 43.3088181,25.8535673 43.8183514,25.9690878 C44.3306952,26.0795796 44.7861274,26.2411967 45.1892855,26.4325669 C45.5930056,26.6229592 45.944311,26.8527431 46.2468552,27.0998482 C46.5486967,27.3477913 46.8027608,27.6138936 47.0104525,27.8889359 C47.3228332,28.2880196 47.5608778,28.7061006 47.7325958,29.1579857 C47.9067028,29.6100104 48.0123754,30.0908106 48.0642281,30.6221771 C48.1167834,31.151169 48.1128488,31.7287718 48.0618392,32.3628077 C48.0123754,32.9992184 47.9151341,33.6931798 47.7829028,34.4625717 C47.6512335,35.2367131 47.5083225,35.9404525 47.3381502,36.5845459 C47.166151,37.2276615 46.9685769,37.8164391 46.7289866,38.3568853 C46.490099,38.898868 46.2103194,39.3939161 45.8765793,39.8557189 C45.5426987,40.3197567 45.1519066,40.7544604 44.6949286,41.1656968 C44.3770675,41.4491202 44.0205628,41.725699 43.6213394,41.9842583 C43.2236617,42.2397445 42.7834058,42.480843 42.3029606,42.680315 C41.8192833,42.8829998 41.2992109,43.0476899 40.7364197,43.1739663 C40.170818,43.291163 39.5654486,43.3651968 38.9198899,43.3705048 C38.2744716,43.3818194 37.69271,43.3259449 37.1681408,43.2200627 C36.6418853,43.1150187 36.173525,42.9577319 35.7617951,42.7665014 C35.3506273,42.5737344 34.9886423,42.3478617 34.6799151,42.0953089 C34.3696422,41.8406608 34.1074279,41.5661773 33.889197,41.2865254 C33.5697901,40.8747303 33.3318862,40.4467315 33.1553903,39.9796207 C32.9835317,39.5126495 32.8794048,39.0122932 32.8307842,38.4658405 C32.7858171,37.9154766 32.7942484,37.3198544 32.8566402,36.6661226 C32.9150975,36.0077813 33.0224564,35.2949622 33.16607,34.5041983 C33.3127751,33.721117 33.4747972,33.0129076 33.6595838,32.3681158 C33.8466188,31.7196922 34.0564183,31.1346861 34.3065478,30.5942399 C34.5613144,30.0575652 34.850228,29.5669871 35.1961935,29.1089558 C35.5435642,28.654696 35.9392746,28.2306085 36.4062297,27.8299883 C36.7239503,27.5563429 37.0821412,27.2881453 37.4805215,27.0432752 C37.8797449,26.796729 38.3155041,26.5760246 38.7900474,26.3847941 C39.2658554,26.2004083 39.780588,26.0439596 40.3342453,25.9419887 C40.8893078,25.8345699 41.4817491,25.777997 42.1128341,25.7869369 Z M57.5370962,28.9975443 C57.3164764,28.9990808 57.1097683,29.0165416 56.9098053,29.0542569 C56.7127933,29.0876419 56.5264609,29.1442148 56.3478573,29.2130802 C56.1706588,29.2871139 55.9995029,29.3770719 55.8338272,29.4814175 C55.6702595,29.5886966 55.5114694,29.7149729 55.356333,29.8563355 C55.0696678,30.109447 54.8293749,30.4072581 54.6211211,30.7405495 C54.4134294,31.0777522 54.2386198,31.4480605 54.0888232,31.8539888 C53.9373403,32.256844 53.8104488,32.6960176 53.6949396,33.1600554 C53.583084,33.6218582 53.4803623,34.1131348 53.38017,34.6309518 C53.2796967,35.1413655 53.1876547,35.6355755 53.1200635,36.1064579 C53.0509266,36.5737085 53.0075053,37.0181902 52.9952799,37.4316615 C52.983195,37.8427582 53.009051,38.2206096 53.0774853,38.5645172 C53.1497137,38.9032564 53.2652229,39.2055375 53.4386272,39.4625602 C53.5428947,39.603783 53.6575607,39.729361 53.78923,39.83664 C53.9161215,39.9469922 54.0598757,40.0369502 54.2172605,40.1072123 C54.3784394,40.1812461 54.5518437,40.2326506 54.7419702,40.2698072 C54.9320966,40.3052875 55.1403504,40.321072 55.3632186,40.318837 C55.5844004,40.313529 55.7972915,40.2915982 55.997395,40.2523464 C56.2011521,40.2122564 56.3919812,40.1526104 56.5781731,40.0785767 C56.7622571,40.0021683 56.9394555,39.9069022 57.1097683,39.7927786 C57.2769897,39.681728 57.4397143,39.5547532 57.5948508,39.4073841 C57.8784245,39.1465899 58.1173121,38.8419341 58.3210693,38.501798 C58.5263721,38.1587286 58.696685,37.7785025 58.8456384,37.3688027 C58.9270008,37.1467015 59.0000723,36.9131461 59.068366,36.672746 C59.153663,36.4059453 59.2310907,36.1307633 59.2988224,35.8404952 C59.3962042,35.4307954 59.4798149,34.9997236 59.5603341,34.5531466 C59.6006639,34.3255976 59.6395886,34.1033568 59.6728923,33.886424 C59.7177189,33.6280044 59.7588919,33.3732167 59.7930387,33.1276482 C59.8568358,32.6650073 59.8987114,32.2342148 59.9062996,31.8327565 C59.9162767,31.4314378 59.8895775,31.0602914 59.8166465,30.7330065 C59.7458233,30.4004135 59.6296115,30.1041389 59.4539588,29.8508877 C59.3529234,29.7096649 59.2372737,29.5878584 59.1064475,29.479881 C58.9780103,29.3748369 58.830462,29.2855774 58.6723746,29.2160136 C58.5134441,29.1419799 58.3369483,29.0876419 58.1483675,29.0542569 C57.9590842,29.01724 57.7567323,28.9990808 57.5370962,28.9975443 Z M25.3668247,28.9759749 C25.1485938,28.9759749 24.9425883,28.9925976 24.7448737,29.0287764 C24.5524988,29.0635582 24.3654639,29.1171978 24.188968,29.1875996 C24.0119101,29.2609349 23.8438457,29.3500548 23.6818236,29.4544004 C23.5199421,29.5601429 23.3617142,29.6840446 23.2058751,29.8216356 C22.9245498,30.0757249 22.6842569,30.368228 22.478954,30.700821 C22.2729486,31.0332743 22.0987011,31.3991127 21.9526986,31.802806 C21.8021994,32.1988166 21.6760105,32.6357552 21.5619065,33.095323 C21.4501914,33.5533543 21.3481723,34.0400213 21.2516336,34.5525302 C21.1505982,35.0569373 21.0601019,35.5482139 20.9923702,36.0107152 C20.9254817,36.4755911 20.8806551,36.9171394 20.8708186,37.325163 C20.85775,37.7326278 20.8806551,38.1067076 20.949792,38.4437706 C21.0220204,38.7802748 21.1361244,39.0801813 21.3095287,39.3365056 C21.4114073,39.4739569 21.5255113,39.5986967 21.6539485,39.705417 C21.7794348,39.8142326 21.9238916,39.9040509 22.0804332,39.9751512 C22.2393638,40.0454134 22.4120655,40.0983545 22.5982573,40.135511 C22.7868381,40.1694548 22.9929841,40.1860775 23.2141659,40.1837028 C23.4308511,40.1783947 23.6414938,40.1550671 23.8422999,40.1194471 C24.0414198,40.0779603 24.2339351,40.0198508 24.4178786,39.9442805 C24.5988712,39.8687103 24.7752264,39.7756792 24.9410426,39.6630921 C25.1082639,39.5510637 25.270286,39.424927 25.4231741,39.2811898 C25.7036563,39.0236083 25.9393119,38.7227241 26.1416638,38.3834261 C26.3454209,38.0439885 26.5150312,37.6683721 26.6617363,37.2624438 C26.7438012,37.0388061 26.8160296,36.805111 26.8844639,36.5631744 C26.9682151,36.3032182 27.0456428,36.0327856 27.1111261,35.7478256 C27.2061191,35.3448307 27.2890271,34.9183685 27.3696869,34.4754234 C27.4091736,34.2509475 27.4471146,34.0317798 27.4806994,33.8201551 C27.5255259,33.5615958 27.5665584,33.3091827 27.6000027,33.0627761 C27.6646428,32.6054433 27.7056753,32.1768858 27.7125609,31.7815737 C27.7223974,31.3831884 27.6965414,31.0174898 27.6227672,30.6909033 C27.5544735,30.3636184 27.437278,30.0695788 27.2645763,29.8187022 C27.164384,29.6773397 27.0487343,29.5586064 26.9218428,29.4528639 C26.7939676,29.3469817 26.6472625,29.2609349 26.4898777,29.1889965 C26.3309471,29.1187343 26.1599317,29.0635582 25.9728967,29.0272398 C25.7858617,28.9939945 25.5835098,28.9773718 25.3668247,28.9759749 Z M41.5296672,28.9759744 C41.3112958,28.9759744 41.1059929,28.9925971 40.9075756,29.0287759 C40.7136551,29.0635577 40.5281658,29.1187338 40.3509674,29.1875991 C40.1761579,29.2609344 40.0065476,29.3492162 39.8439635,29.4535618 C39.6802552,29.5601424 39.5237135,29.6826473 39.3701228,29.8238701 C39.0865491,30.0757244 38.8485046,30.3682275 38.6424991,30.7008205 C38.4371963,31.0332738 38.2630893,31.3991122 38.1139954,31.8028055 C37.9649014,32.1988161 37.8402582,32.6364531 37.7246085,33.0953225 C37.613596,33.5533538 37.5118579,34.0400208 37.4137735,34.5525297 C37.3141433,35.0569368 37.2228039,35.5466769 37.1560559,36.0122512 C37.0866379,36.4748921 37.0449029,36.9171389 37.0328179,37.324464 C37.0214357,37.7326273 37.0449029,38.1067071 37.1141803,38.4461448 C37.1840198,38.7802743 37.2996695,39.0786442 37.470685,39.3365051 C37.5748119,39.4739564 37.6875106,39.5986962 37.8180557,39.7054165 C37.9452283,39.8142321 38.0874367,39.9040504 38.2424326,39.9751507 C38.4013631,40.0454129 38.5747675,40.098354 38.7609593,40.1346724 C38.94954,40.1694543 39.1548429,40.186077 39.3768679,40.1837023 C39.5959419,40.1776958 39.8072872,40.1566032 40.0042993,40.1180497 C40.2065106,40.0779598 40.3966371,40.0183137 40.579878,39.94428 C40.7624163,39.8687098 40.9380689,39.7756787 41.1052903,39.661555 C41.2711064,39.5510632 41.4336906,39.4249265 41.5865787,39.2811893 C41.8672014,39.0236078 42.1037002,38.7220252 42.3059115,38.3834256 C42.5105118,38.043988 42.6778737,37.6668351 42.8251409,37.2609068 C42.9059411,37.041739 42.9773264,36.8112567 43.045058,36.5730916 C43.1300739,36.3100623 43.2069395,36.0357185 43.2738281,35.7478251 C43.3703668,35.3448302 43.4532749,34.918368 43.5330914,34.4747245 C43.5727187,34.2487121 43.6106597,34.0302427 43.6426987,33.8156846 C43.689071,33.5578238 43.7292604,33.3068076 43.7635478,33.0627756 C43.8266422,32.6047444 43.8683773,32.1784219 43.8752629,31.7815732 C43.8850994,31.3831879 43.8593839,31.0174893 43.7871555,30.6909028 C43.7171755,30.3636179 43.6016663,30.0695783 43.4267162,29.8187017 C43.3277886,29.6773392 43.2122794,29.5586059 43.0837016,29.4528634 C42.955967,29.3469812 42.810105,29.2585598 42.6542659,29.188996 C42.4953354,29.1171973 42.3217905,29.0635577 42.1355987,29.0287759 C41.9477206,28.9925971 41.7463523,28.9759744 41.5296672,28.9759744 Z" id="path-3"></path>
    </defs>
    <g id="Food-Network-White" stroke="none" stroke-width="1" fill="none" fill-rule="evenodd">
        <g id="*atoms/Logos/Circular/turbo-Copy">
            <mask id="mask-2" fill="white">
                <use xlink:href="#path-1"></use>
            </mask>
            <g id="🎨-Color-Background"></g>
            <mask id="mask-4" fill="white">
                <use xlink:href="#path-3"></use>
            </mask>
            <use id="Mask" fill="#FFFFFF" xlink:href="#path-3"></use>
        </g>
    </g>
</svg>