<svg width="72" height="72" viewBox="0 0 72 72" fill="none" xmlns="http://www.w3.org/2000/svg">
<path d="M22.9541 50.667C22.9541 52.3115 21.6933 53.58 19.8528 53.58H18.0796C18.4369 53.3451 18.7336 53.0229 18.9493 52.6538H19.8528C21.0798 52.6538 21.8754 51.8349 21.8754 50.6872C21.8754 49.5394 21.0731 48.7072 19.8528 48.7072H18.7066V49.5596C18.5381 49.3515 18.3425 49.1636 18.12 49.0159C17.9852 48.9219 17.8369 48.8414 17.6818 48.7743V47.7809H19.8528C21.6866 47.7809 22.9541 49.036 22.9541 50.6737V50.667ZM23.5407 53.6203H24.552V49.2374H23.5407V53.6203ZM28.2938 51.4523C28.1657 51.3517 28.0174 51.2711 27.8556 51.204C27.6938 51.1369 27.532 51.0832 27.3702 51.0295C27.2421 50.9825 27.114 50.9422 26.9993 50.902C26.878 50.8617 26.7769 50.8214 26.6825 50.7744C26.5881 50.7274 26.5139 50.6737 26.46 50.6133C26.406 50.5596 26.3791 50.4858 26.3791 50.412V50.3986C26.3791 50.271 26.433 50.1636 26.5409 50.0831C26.6488 50.0026 26.7971 49.9623 26.9993 49.9623C27.1814 49.9623 27.3769 50.0026 27.5994 50.0697C27.8151 50.1435 28.0309 50.2442 28.2399 50.3717L28.6377 49.6535C28.4017 49.4992 28.1455 49.3783 27.8623 49.2911C27.5792 49.2038 27.296 49.1569 27.0196 49.1569C26.8038 49.1569 26.6016 49.1904 26.406 49.2508C26.2105 49.3112 26.0487 49.3985 25.9071 49.5193C25.7655 49.6334 25.6509 49.7744 25.5768 49.9354C25.4959 50.0965 25.4554 50.2845 25.4554 50.4925V50.5059C25.4554 50.714 25.4959 50.8952 25.5768 51.0362C25.6644 51.1839 25.7655 51.3047 25.9004 51.3986C26.0285 51.4926 26.1768 51.5731 26.3454 51.6336C26.5072 51.694 26.669 51.7477 26.8308 51.7946C26.9589 51.8349 27.0802 51.8685 27.2016 51.9087C27.323 51.9423 27.4241 51.9893 27.5185 52.0296C27.6129 52.0765 27.687 52.1302 27.7342 52.1906C27.7882 52.2511 27.8151 52.3249 27.8151 52.4054V52.4189C27.8151 52.5598 27.7545 52.6806 27.6331 52.7612C27.5185 52.8484 27.3432 52.8887 27.1274 52.8887C26.8982 52.8887 26.6622 52.8417 26.4195 52.7477C26.1701 52.6605 25.9274 52.5262 25.6914 52.345L25.2397 53.0229C25.5161 53.2377 25.8195 53.3988 26.1431 53.5129C26.4667 53.6203 26.7903 53.674 27.1072 53.674C27.3297 53.674 27.5455 53.6471 27.7477 53.5867C27.95 53.5263 28.1185 53.4391 28.2669 53.3317C28.4084 53.2176 28.5231 53.0766 28.6107 52.9021C28.6983 52.7276 28.7388 52.5262 28.7388 52.298V52.2779C28.7388 52.0765 28.6983 51.9087 28.6107 51.7745C28.5298 51.6336 28.4219 51.5195 28.2871 51.4255L28.2938 51.4523ZM38.0159 50.5127C38.1372 50.7879 38.1912 51.0832 38.1912 51.3986V51.4121C38.1912 51.7208 38.1305 52.0161 38.0091 52.2913C37.8878 52.5665 37.726 52.8081 37.517 53.0162C37.308 53.2243 37.0585 53.3854 36.7686 53.5129C36.4787 53.6337 36.1618 53.6941 35.8247 53.6941C35.4876 53.6941 35.1842 53.6337 34.8943 53.5129C34.6044 53.3921 34.3617 53.231 34.1527 53.0296C33.9437 52.8216 33.7819 52.5866 33.6672 52.3115C33.5526 52.0363 33.4919 51.7409 33.4919 51.4322V51.4121C33.4919 51.0966 33.5526 50.8013 33.6672 50.5261C33.7886 50.2509 33.9504 50.0093 34.1594 49.8012C34.3684 49.5931 34.6111 49.432 34.901 49.3112C35.1842 49.1904 35.5011 49.13 35.8382 49.13C36.1753 49.13 36.4922 49.1904 36.7753 49.3112C37.0585 49.432 37.308 49.5931 37.517 49.8012C37.726 50.0093 37.8878 50.2509 38.0024 50.5194L38.0159 50.5127ZM37.1731 51.4188C37.1731 51.2241 37.1394 51.0429 37.072 50.8751C37.0046 50.7006 36.9102 50.5529 36.7956 50.4254C36.6742 50.2979 36.5326 50.1972 36.3708 50.1234C36.209 50.0495 36.027 50.016 35.8247 50.016C35.6224 50.016 35.4471 50.0495 35.2786 50.1234C35.1168 50.1972 34.9752 50.2979 34.8606 50.4254C34.746 50.5529 34.6516 50.6939 34.5909 50.8617C34.5302 51.0295 34.4965 51.2107 34.4965 51.4053V51.4188C34.4965 51.6067 34.5302 51.7879 34.5976 51.9624C34.6651 52.1369 34.7595 52.2846 34.8741 52.4121C34.9954 52.5397 35.137 52.6471 35.2988 52.7209C35.4606 52.7947 35.6427 52.835 35.8382 52.835C36.0404 52.835 36.2292 52.7947 36.391 52.7209C36.5528 52.6471 36.6944 52.5464 36.809 52.4189C36.9237 52.2913 37.0113 52.1437 37.0787 51.9759C37.1394 51.8081 37.1731 51.6268 37.1731 51.4389V51.4188V51.4188ZM40.4902 52.439L39.3103 49.2173H38.2249L40.0385 53.627H40.9419L42.7421 49.2173H41.6836L40.4902 52.439ZM46.9626 50.5798C47.0502 50.8617 47.0974 51.1637 47.0974 51.4792C47.0974 51.5262 47.0974 51.5664 47.0974 51.6134C47.0974 51.6604 47.0907 51.7074 47.0839 51.7611H43.8478C43.9017 52.1235 44.05 52.392 44.2792 52.5866C44.5085 52.7746 44.7849 52.8685 45.1153 52.8685C45.3647 52.8685 45.5805 52.8216 45.7692 52.7343C45.9513 52.6471 46.1333 52.5128 46.3086 52.345L46.9019 52.8685C46.6929 53.1169 46.4367 53.3182 46.1468 53.4659C45.8569 53.6136 45.5063 53.6874 45.1018 53.6874C44.7849 53.6874 44.4882 53.6337 44.2118 53.5196C43.9354 53.4055 43.6994 53.2511 43.4972 53.0498C43.2949 52.8551 43.1331 52.6135 43.0185 52.3316C42.9039 52.0564 42.8432 51.7409 42.8432 51.4053V51.3919C42.8432 51.0765 42.8971 50.7811 42.9983 50.5059C43.1061 50.2308 43.2545 49.9891 43.4432 49.7811C43.632 49.573 43.8612 49.4119 44.1174 49.2911C44.3804 49.177 44.6703 49.1099 44.9872 49.1099C45.3377 49.1099 45.6411 49.1703 45.9041 49.3045C46.167 49.432 46.3895 49.5998 46.5648 49.8213C46.7401 50.0361 46.8749 50.2845 46.9626 50.5731V50.5798ZM46.0929 50.9825C46.0794 50.8214 46.0457 50.7744 45.985 50.6402C45.9311 50.4992 45.8501 50.3717 45.7625 50.271C45.6681 50.1704 45.5535 50.0831 45.4254 50.0294C45.2906 49.969 45.1422 49.9421 44.9804 49.9421C44.6703 49.9421 44.4141 50.0495 44.2051 50.2576C44.0028 50.4724 43.8815 50.6469 43.8343 50.9825H46.0929V50.9825ZM31.4963 52.8081C30.721 52.8081 30.1816 52.1772 30.1816 51.3919C30.1816 50.6066 30.7142 49.9891 31.4491 49.9891C31.9548 49.9891 32.2784 50.2106 32.5885 50.5395L33.2155 49.8683C32.8043 49.4253 32.2919 49.1166 31.4558 49.1166C30.1411 49.1166 29.1703 50.1569 29.1703 51.4121C29.1703 52.6672 30.1344 53.6807 31.4424 53.6807C32.2986 53.6807 32.811 53.3384 33.2425 52.8618L32.6357 52.2645C32.3188 52.5866 31.9682 52.8081 31.4963 52.8081V52.8081ZM48.8504 49.9287V49.2038H47.8458V53.5867H48.8504V51.9222C48.8504 51.6268 48.8773 51.3718 48.9582 51.157C49.2616 50.3583 50.1111 50.1368 50.5494 50.0697L50.2055 49.2307C49.8549 49.2911 49.2347 49.4589 48.8571 49.9287H48.8504ZM54.1227 49.2038L52.9967 52.4121L51.945 49.2038H50.873L52.5046 53.5532L52.4911 53.58C52.4911 53.58 52.1607 54.466 51.8641 54.6808C51.6348 54.8016 51.0955 54.7882 50.8932 54.7747V55.5936C51.2505 55.5936 52.0798 55.6137 52.3495 55.4459C52.6866 55.2311 52.7608 55.1439 52.9967 54.6741C53.2462 54.164 55.1744 49.1971 55.1744 49.1971H54.1227V49.2038Z" fill="white"/>
<path d="M18.8747 51.3044C18.8747 50.0293 17.8365 48.9891 16.5489 48.9891C15.2613 48.9891 14.2231 50.0293 14.2231 51.3044C14.2231 52.5795 15.268 53.6198 16.5489 53.6198C17.8298 53.6198 18.8747 52.5863 18.8747 51.3044Z" fill="white"/>
<path d="M9.30818 33.8268C9.31492 33.1355 9.38908 32.4307 9.54415 31.7595C9.94867 29.9339 11.2701 28.8868 13.1444 28.8331C14.5602 28.7929 15.639 29.4842 16.1581 30.7863C16.4008 31.3971 16.5087 32.0347 16.5154 32.6858C16.5154 34.0729 16.5154 35.0461 16.5154 35.6055V38.2164C16.5154 39.7467 17.2503 42.1899 20.8236 42.1899C21.8619 42.1899 22.7518 41.9482 23.5137 41.5992V38.109C23.0755 38.3708 22.5361 38.5721 21.9293 38.5721C21.0663 38.5721 20.8776 37.9479 20.8371 37.4982C20.8371 35.9142 20.8371 34.3235 20.8371 32.7395C20.8371 31.5112 20.7023 30.2963 20.2775 29.1285C19.6842 27.4907 18.6662 26.2356 17.0413 25.5174C15.7806 24.9603 14.4524 24.8462 13.0905 24.9872C11.6072 25.1416 10.2993 25.6718 9.27447 26.786C9.25424 26.8061 9.22727 26.8196 9.18682 26.8464C9.39582 24.0744 9.23401 19.7586 9.30144 17H5V41.9013H9.29469C9.29469 41.7872 9.29469 41.9952 9.29469 41.9013L9.30818 33.8335V33.8268Z" fill="white"/>
<path d="M42.8904 37.4781C42.7623 37.3439 42.7623 37.2499 42.8365 37.0888C43.45 35.827 43.5713 34.4913 43.6388 33.0952C43.6994 31.8736 43.686 30.5715 43.6994 29.3499H39.9306C39.9306 29.3499 40.0655 32.6052 39.6677 34.2832C39.6677 34.2832 32.7773 27.4236 32.6357 27.2693C32.0896 26.6719 31.6649 25.994 31.3952 25.2087C30.903 23.7723 31.8132 22.2017 33.2627 21.8192C33.7482 21.6916 34.2471 21.6782 34.7392 21.752C35.9056 21.9333 36.654 22.6917 36.8225 23.8529C36.8428 23.9871 36.8495 24.1214 36.863 24.2556H40.8273C40.7936 22.2487 40.1396 20.5372 38.4541 19.4297C35.9191 17.7584 33.202 17.6846 30.5254 19.0606C27.4848 20.6312 26.5476 24.2623 28.1253 27.0545C28.3612 27.4706 28.6377 27.8935 28.9006 28.3163C28.8197 28.3767 28.5703 28.5579 28.4826 28.6183C25.1453 31.0548 24.7003 34.0617 25.0442 35.9612C25.9543 41.0556 30.9839 42.116 32.602 42.2503C34.6718 42.4181 36.6675 42.1429 38.535 41.2032C39.0811 40.928 39.7688 40.6193 40.3149 40.2904L41.933 41.9013C43.2882 41.9013 46.585 41.9013 46.6592 41.9013C46.7334 41.5388 46.6592 41.2569 46.3963 40.9817L42.8836 37.4848L42.8904 37.4781ZM35.4809 38.4983C34.3347 38.7131 30.9637 39.0218 29.5816 36.6592C28.7658 35.2632 28.7523 32.7999 31.1659 31.1756L37.6383 37.6056C36.9776 38.0687 36.2495 38.3574 35.4876 38.4983H35.4809Z" fill="white"/>
<path d="M52.7945 33.8268C52.8012 33.1355 52.8754 32.4307 53.0304 31.7595C53.435 29.9339 54.7564 28.8868 56.6307 28.8331C58.0465 28.7929 59.1253 29.4842 59.6444 30.7863C59.8871 31.3971 59.995 32.0347 60.0017 32.6858C60.0017 34.0729 60.0017 35.0461 60.0017 35.6055V38.2164C60.0017 39.7467 60.7366 42.1899 64.3099 42.1899C65.3482 42.1899 66.2381 41.9482 67 41.5992V38.109C66.5618 38.3708 66.0224 38.5721 65.4156 38.5721C64.5526 38.5721 64.3639 37.9479 64.3234 37.4982C64.3234 35.9142 64.3234 34.3235 64.3234 32.7395C64.3234 31.5112 64.1886 30.2963 63.7638 29.1285C63.1705 27.4907 62.1525 26.2356 60.5276 25.5174C59.2669 24.9603 57.9387 24.8462 56.5768 24.9872C55.0935 25.1416 53.7856 25.6718 52.7608 26.786C52.7405 26.8061 52.7136 26.8196 52.6731 26.8464C52.8821 24.0744 52.7203 19.7586 52.7877 17H48.4796V41.9013H52.7742C52.7742 41.7872 52.7742 41.9952 52.7742 41.9013L52.7877 33.8335L52.7945 33.8268Z" fill="white"/>
</svg>
