<?xml version="1.0" encoding="UTF-8"?>
<svg width="72px" height="72px" viewBox="0 0 72 72" version="1.1" xmlns="http://www.w3.org/2000/svg" xmlns:xlink="http://www.w3.org/1999/xlink">
    <title>Artboard</title>
    <defs>
        <polygon id="path-1" points="0 0.150336355 59.2680019 0.150336355 59.2680019 34.2982831 0 34.2982831"></polygon>
    </defs>
    <g id="Artboard" stroke="none" stroke-width="1" fill="none" fill-rule="evenodd">
        <g id="Group-8" transform="translate(6.000000, 13.500000)">
            <g id="Group-3" transform="translate(0.000000, 9.233380)">
                <mask id="mask-2" fill="white">
                    <use xlink:href="#path-1"></use>
                </mask>
                <g id="Clip-2"></g>
                <path d="M18.7633435,0.150336355 L18.7633435,27.5502963 L48.2453481,34.2982831 C55.7654584,31.5983201 59.2680019,25.2108771 59.2680019,17.908904 C59.2680019,8.2271769 53.1107692,0.150336355 39.5936678,0.150336355 L18.7633435,0.150336355 Z M32.5197099,9.87020317 L38.2510948,9.87020317 C43.0352975,9.87020317 44.7562495,13.8699349 44.839663,17.908904 C44.7562495,21.947873 43.0352975,25.9478792 38.2510948,25.9478792 L32.5197099,25.9478792 L32.5197099,9.87020317 Z M-2.74386475e-05,0.150336355 L-2.74386475e-05,23.2558734 L13.7563389,26.4044583 L13.7563389,0.150336355 L-2.74386475e-05,0.150336355 Z" id="Fill-1" fill="#FFFFFF" mask="url(#mask-2)"></path>
            </g>
            <path d="M42.8675651,1.06461956 L42.0479726,3.40925207 L41.2827087,1.06461956 L40.501256,1.06461956 L41.6896239,4.2409175 L41.6808435,4.26067333 C41.6808435,4.26067333 41.4418529,4.91042052 41.2250876,5.06599766 C41.0566143,5.15215501 40.6683574,5.14502096 40.5201887,5.13514305 L40.5201887,5.73522629 C40.778112,5.73385436 41.3853293,5.75004316 41.5793205,5.62629486 C41.824622,5.47099211 41.8794993,5.40431619 42.0479726,5.06544888 C42.2293421,4.69475274 43.6311826,1.06461956 43.6311826,1.06461956 L42.8675651,1.06461956 Z M39.0395992,1.59281354 L39.0395992,1.06461956 L38.3072617,1.06461956 L38.3072617,4.26341719 L39.0395992,4.26341719 L39.0395992,3.04596436 C39.0395992,2.83057097 39.0596294,2.64289062 39.1180737,2.48841102 C39.3392293,1.90588852 39.9544037,1.74125663 40.2726921,1.69378777 L40.0219028,1.08218029 C39.7645283,1.12635652 39.3161808,1.25037921 39.0395992,1.59281354 L39.0395992,1.59281354 Z M26.4222111,3.69735787 C25.8586213,3.69735787 25.4656998,3.23776051 25.4656998,2.66209767 C25.4656998,2.0990566 25.852036,1.63863608 26.3865409,1.63863608 C26.7547675,1.63863608 26.9904655,1.80162165 27.2151881,2.03869158 L27.6703952,1.546991 C27.3729603,1.22239179 26.9967764,0.997943643 26.3925774,0.997943643 C25.4349686,0.997943643 24.7333623,1.75964052 24.7333623,2.67554261 C24.7333623,3.58897521 25.4349686,4.33338574 26.3865409,4.33338574 C27.0093982,4.33338574 27.3806431,4.08534036 27.6945413,3.73467444 L27.2522302,3.29867431 C27.02202,3.53464669 26.7679381,3.69735787 26.4222111,3.69735787 L26.4222111,3.69735787 Z M37.0316389,2.36219324 C37.0198403,2.24475583 36.9948711,2.21237822 36.9537132,2.1092089 C36.9125552,2.00713713 36.8579523,1.91466889 36.7904532,1.83976138 C36.7213078,1.76375632 36.6381687,1.70339129 36.5457005,1.66113578 C36.4493908,1.61888026 36.3407338,1.59830127 36.2200037,1.59830127 C35.994458,1.59830127 35.8086984,1.67458071 35.6591577,1.83070662 C35.5126353,1.98710692 35.4223622,2.11250154 35.390259,2.36219324 L37.0316389,2.36219324 Z M37.6624534,2.06036811 C37.7263855,2.26917622 37.7590375,2.48841102 37.7590375,2.71807251 C37.7590375,2.75017573 37.7579399,2.78365088 37.7562936,2.81767481 C37.7540985,2.85361944 37.7502571,2.88764336 37.7469645,2.92358799 L35.3962955,2.92358799 C35.4371791,3.18645024 35.5414459,3.38647799 35.7085473,3.52806141 C35.8770206,3.6663522 36.078969,3.7354976 36.3174109,3.7354976 C36.5007011,3.7354976 36.6562782,3.70311999 36.7904532,3.63918794 C36.9224331,3.57443273 37.0535898,3.47894623 37.1831003,3.35437477 L37.6147102,3.7354976 C37.4610538,3.91686706 37.2766661,4.06366383 37.0662116,4.17149772 C36.8541109,4.28042915 36.5994802,4.33612961 36.3056123,4.33612961 C36.075402,4.33612961 35.8597342,4.29469725 35.6591577,4.21512517 C35.4602275,4.13390677 35.2857177,4.01976199 35.1383722,3.87406277 C34.9921242,3.73000987 34.8749612,3.5546769 34.7909989,3.35108213 C34.7056647,3.14831052 34.6645067,2.9213929 34.6645067,2.67636577 L34.6645067,2.66429276 C34.6645067,2.4340825 34.7023721,2.21704279 34.7789259,2.01509434 C34.8563029,1.81259711 34.9633136,1.63698976 35.1043483,1.4860772 C35.2429134,1.3337927 35.4069965,1.21470897 35.5963232,1.12855161 C35.7859243,1.04266864 35.9972019,0.997943643 36.2274121,0.997943643 C36.4823172,0.997943643 36.7048446,1.0434918 36.8952688,1.13788075 C37.0873394,1.23007461 37.2470323,1.35519485 37.3740733,1.51296707 C37.5013886,1.66991614 37.5976982,1.85293193 37.6624534,2.06036811 L37.6624534,2.06036811 Z M32.957274,3.41528857 L32.0976212,1.06461956 L31.3090344,1.06461956 L32.6252664,4.28674004 L33.2843427,4.28674004 L34.593715,1.06461956 L33.8232378,1.06461956 L32.957274,3.41528857 Z M30.5470631,2.6695061 C30.5470631,2.52847145 30.5215452,2.39484523 30.4740763,2.26999938 C30.4260587,2.14460476 30.3569133,2.03567333 30.2724023,1.94402824 C30.1843242,1.84909052 30.0814293,1.7763781 29.9631687,1.72067764 C29.8443594,1.66580035 29.7115563,1.64055679 29.5655827,1.64055679 C29.4198835,1.64055679 29.2884523,1.66580035 29.1690942,1.72067764 C29.0497361,1.7763781 28.9479387,1.84909052 28.8634277,1.94046122 C28.779191,2.03128314 28.7133383,2.1377451 28.669162,2.25984708 C28.624437,2.38469293 28.6027605,2.51639845 28.6027605,2.65688433 L28.6027605,2.6695061 C28.6027605,2.80779689 28.6271809,2.93895363 28.6754729,3.06379948 C28.7229418,3.18974288 28.7915384,3.29867431 28.8787933,3.39388642 C28.9649507,3.48909853 29.0678456,3.56345727 29.1863806,3.61778579 C29.3062875,3.67156554 29.4371698,3.70010174 29.5773813,3.70010174 C29.7263732,3.70010174 29.8610969,3.67156554 29.9810038,3.61778579 C30.0998132,3.56345727 30.2018849,3.48909853 30.2866704,3.39608151 C30.3717302,3.30443643 30.4351135,3.19523061 30.4801128,3.07175669 C30.5245634,2.94883155 30.5470631,2.81932112 30.5470631,2.6818535 L30.5470631,2.6695061 Z M31.1520853,2.0118017 C31.2387915,2.21237822 31.2804982,2.42722284 31.2804982,2.65688433 L31.2804982,2.6695061 C31.2804982,2.89614934 31.2365964,3.10962202 31.1493415,3.31129609 C31.0631841,3.51351893 30.9432772,3.69049821 30.7929134,3.84168516 C30.6409033,3.99259773 30.4595339,4.11332778 30.2510001,4.20305216 C30.0416432,4.29085584 29.8119817,4.33612961 29.5655827,4.33612961 C29.3238482,4.33612961 29.0977537,4.291679 28.8908663,4.20497287 C28.6823326,4.11854113 28.5026094,4.00082933 28.3511481,3.85046553 C28.2002355,3.70147367 28.081975,3.52696387 27.9966408,3.32474103 C27.9121297,3.12196942 27.8698742,2.90822235 27.8698742,2.6818535 L27.8698742,2.6695061 C27.8698742,2.43902146 27.9129529,2.22280491 27.9991102,2.02113084 C28.0869139,1.82027994 28.2068208,1.64412381 28.3585565,1.49129054 C28.5091947,1.33928043 28.6889179,1.2201967 28.8974516,1.1307467 C29.1048878,1.04266864 29.3318054,0.997943643 29.5773813,0.997943643 C29.8246035,0.997943643 30.0523443,1.04266864 30.2603293,1.12855161 C30.4672167,1.21470897 30.6474886,1.3337927 30.7984012,1.4860772 C30.9512344,1.63698976 31.0689462,1.81259711 31.1520853,2.0118017 L31.1520853,2.0118017 Z M24.0786762,2.67883524 C23.9842872,2.60831792 23.8794716,2.54822728 23.761211,2.49966087 C23.6445967,2.4502713 23.5274337,2.40883894 23.4097219,2.37289431 C23.3161561,2.34106548 23.2261574,2.31088297 23.1402744,2.28152362 C23.0524707,2.25381058 22.9764657,2.22170736 22.9106129,2.18768344 C22.8433882,2.15448267 22.7887853,2.11634295 22.7498224,2.07189234 C22.7103108,2.03128314 22.6902806,1.9813448 22.6902806,1.9245468 L22.6902806,1.91302257 C22.6902806,1.82027994 22.7286947,1.74290295 22.8074436,1.68116599 C22.8861925,1.62162412 22.9953983,1.59199038 23.1391768,1.59199038 C23.2703336,1.59199038 23.4149353,1.61888026 23.5735306,1.67238562 C23.7310285,1.72671414 23.8857825,1.80162165 24.0391645,1.89491306 L24.3302886,1.37302997 C24.1601689,1.26108028 23.9746837,1.17080713 23.7677963,1.10742385 C23.561732,1.04266864 23.3573141,1.00919349 23.1545425,1.00919349 C22.9981422,1.00919349 22.8502479,1.03279073 22.7103108,1.07669256 C22.5700993,1.12086879 22.449918,1.18589838 22.3470231,1.27040942 C22.2435794,1.35519485 22.1618122,1.45671784 22.1047398,1.57635035 C22.0457467,1.69543409 22.0169361,1.83290171 22.0169361,1.98518621 L22.0169361,1.99643606 C22.0169361,2.15064126 22.0465699,2.2798773 22.107758,2.38496732 C22.1689462,2.49033173 22.2452257,2.57840979 22.3407122,2.64837835 C22.4359243,2.71862128 22.5423862,2.77706561 22.6620187,2.82069306 C22.7813769,2.86541805 22.8982655,2.90438093 23.0157029,2.93620977 C23.1078968,2.96502035 23.1992675,2.99108706 23.2859736,3.01797694 C23.3737773,3.0451412 23.4486848,3.07450055 23.5150863,3.10879887 C23.5834086,3.14282279 23.6341701,3.18260883 23.6739561,3.22651067 C23.7126446,3.27123566 23.7310285,3.32474103 23.7310285,3.38483167 L23.7310285,3.39608151 C23.7310285,3.50117154 23.6882242,3.58540819 23.6001461,3.64741953 C23.5139888,3.70943088 23.3918868,3.74263164 23.2341146,3.74263164 C23.0681107,3.74263164 22.8955216,3.70888211 22.7166217,3.64110864 C22.5355266,3.57443273 22.360468,3.47702553 22.1862326,3.34806388 L21.8597127,3.84525219 C22.0611123,4.00275003 22.2803471,4.12183376 22.5168683,4.20305216 C22.7522919,4.28234986 22.985246,4.32268467 23.2162794,4.32268467 C23.3800882,4.32268467 23.5373116,4.3018313 23.6830109,4.26067333 C23.8287101,4.2164971 23.9535559,4.15311382 24.0627617,4.07162104 C24.1678518,3.98903071 24.2512653,3.885587 24.3124534,3.75991799 C24.373916,3.63452337 24.4040985,3.48635467 24.4040985,3.31815575 L24.4040985,3.30580836 C24.4040985,3.15956037 24.373916,3.03636083 24.3124534,2.93620977 C24.2512653,2.83441238 24.1738883,2.7488038 24.0786762,2.67883524 L24.0786762,2.67883524 Z M20.6268942,4.26341719 L21.3592317,4.26341719 L21.3592317,1.06461956 L20.6268942,1.06461956 L20.6268942,4.26341719 Z M20.2024183,2.11250154 C20.2024183,3.31129609 19.2826748,4.23735047 17.9494309,4.23735047 L16.6617351,4.23735047 C16.9224023,4.06476138 17.1388932,3.83263041 17.294196,3.56016463 L17.9494309,3.56016463 C18.8395406,3.56016463 19.4220631,2.96063016 19.4220631,2.12457455 C19.4220631,1.28934209 18.8395406,0.678557775 17.9494309,0.678557775 L17.115296,0.678557775 L17.115296,1.30059193 C16.9926452,1.14967937 16.8485923,1.0130349 16.688625,0.902457146 C16.5887483,0.832762979 16.4817376,0.773769885 16.370611,0.725203478 L16.370611,0 L17.9494309,0 C19.2826748,0 20.2024183,0.913981379 20.2024183,2.11250154 L20.2024183,2.11250154 Z" id="Fill-4" fill="#FFFFFF"></path>
            <path d="M17.2384132,2.57750432 C17.2384132,1.64431588 16.4816553,0.885637255 15.5468205,0.885637255 C14.6136321,0.885637255 13.8557766,1.64431588 13.8557766,2.57750432 C13.8557766,3.51069275 14.6136321,4.26745067 15.5468205,4.26745067 C16.4816553,4.26745067 17.2384132,3.51069275 17.2384132,2.57750432" id="Fill-6" fill="#FFFFFF"></path>
        </g>
    </g>
</svg>