<?xml version="1.0" encoding="UTF-8"?>
<svg xmlns="http://www.w3.org/2000/svg" xmlns:xlink="http://www.w3.org/1999/xlink" width="1230px" height="194px" viewBox="0 0 1230 194" version="1.1" fill="#ffffff">
    <title>Artboard Copy 3</title>
    <defs>
        <path d="M711.668051,26.88 L731.388896,88.5556875 L752.51771,26.88 L772.2,26.88 C772.2,26.88 736.07332,122.394762 731.369619,132.132913 C727.051467,141.065199 725.644212,142.835772 719.321204,146.907361 C715.383374,149.454086 705.011809,149.752138 697.480465,149.759842 L696.514986,149.759361 C694.777264,149.756051 693.225013,149.741006 691.985047,149.741006 L691.985047,149.741006 L691.985047,133.982178 C695.801985,134.238656 705.864821,134.414985 710.163695,132.172988 C715.754873,128.040922 721.923662,111.004076 721.923662,111.004076 L721.923662,111.004076 L722.154991,110.433558 L691.522388,26.88 L711.668051,26.88 Z M652.512825,26.88 L652.512825,40.8452687 C659.522544,31.7784515 670.958455,28.5398845 677.455268,27.3540437 L677.455268,27.3540437 L683.838806,43.4920127 C675.764577,44.7561292 660.130433,49.12055 654.525754,64.4881981 C653.025731,68.5965768 652.512825,73.5550153 652.512825,79.2033044 L652.512825,79.2033044 L652.512825,111.36 L633.895522,111.36 L633.895522,26.88 L652.512825,26.88 Z M327.347272,26.88 C343.063967,26.88 352.803993,32.5598227 360.506761,40.8341323 L360.506761,40.8341323 L348.72948,53.2540113 C342.92815,47.2705635 336.796979,43.1242929 327.211455,43.1242929 C313.377514,43.1242929 303.326332,54.7875634 303.326332,69.0439184 C303.326332,83.6228312 313.532734,95.267169 328.142772,95.267169 C337.107418,95.267169 343.684845,91.1201972 349.660797,85.1367494 L349.660797,85.1367494 L361.128358,96.1759406 C352.959212,105.073628 343.374406,111.36 327.192052,111.36 C302.512148,111.36 284.292537,92.5022874 284.292537,69.3475435 C284.292537,46.1913972 302.53155,26.88 327.347272,26.88 Z M578.588768,26.88 C585.215888,26.88 591.025086,28.0533139 596.03441,30.3999416 C601.024242,32.7465693 605.195429,35.9258714 608.508989,39.899999 C611.82255,43.893051 614.318188,48.5106088 615.993737,53.7722977 C617.670731,59.0332857 618.528358,64.5781399 618.528358,70.4075613 C618.528358,71.2213112 618.508867,72.07291 618.450392,72.9434332 C618.391917,73.8139564 618.313951,74.7027031 618.215772,75.6307004 L556.953168,75.6307004 C558.005711,82.2724699 560.715034,87.363839 565.081137,90.8837806 C569.44724,94.4226466 574.729445,96.1826174 580.947243,96.1826174 C585.683685,96.1826174 589.777628,95.3688675 593.266612,93.7224432 C596.755596,92.0949433 600.166614,89.6915424 603.519158,86.5122403 L614.746279,96.1826174 C610.731024,100.781952 605.97509,104.453289 600.439496,107.215553 C594.923392,109.979218 588.315042,111.36 580.635378,111.36 C574.631987,111.36 569.037918,110.319858 563.814187,108.294244 C558.609949,106.250407 554.087191,103.39282 550.22859,99.702559 C546.388037,96.0312221 543.36685,91.6029085 541.164307,86.4365426 C538.942272,81.2701767 537.850746,75.5739272 537.850746,69.347093 L537.850746,69.0253779 C537.850746,63.2155818 538.844814,57.7464253 540.852442,52.6179082 C542.840578,47.5083156 545.66685,43.0421532 549.292275,39.2194209 C552.937913,35.3770633 557.206558,32.368081 562.157407,30.1728486 C567.108256,27.9776162 572.585376,26.88 578.588768,26.88 Z M469.75824,26.88 L491.893256,88.5051811 L514.202215,26.88 L534.008955,26.88 L500.324523,111.36 L483.327967,111.36 L449.489552,26.88 L469.75824,26.88 Z M407.303989,26.88 C413.420426,26.88 419.036426,27.9776071 424.207595,30.1728213 C429.360916,32.3680354 433.809234,35.3776937 437.571769,39.2186176 C441.315769,43.0609433 444.244245,47.5074436 446.338661,52.560221 C448.433077,57.6326236 449.489552,63.0638863 449.489552,68.8925584 L449.489552,69.1960475 C449.489552,74.9111741 448.414542,80.3235125 446.264522,85.4330627 C444.095967,90.5426129 441.167492,95.0276626 437.404957,98.8503631 C433.660956,102.692689 429.17557,105.72057 423.98518,107.972557 C418.776941,110.224544 413.123871,111.36 407.007435,111.36 C401.002206,111.36 395.422589,110.262393 390.269954,108.067179 C385.11732,105.871965 380.650468,102.881231 376.906468,99.0963785 C373.143932,95.3115265 370.233305,90.8643254 368.120354,85.7547751 C366.007404,80.6452249 364.970149,75.2328865 364.970149,69.4981348 L364.970149,69.1960475 C364.970149,63.3666745 366.045159,57.8975633 368.195179,52.788013 C370.345199,47.6784628 373.310744,43.2116365 377.054745,39.3700117 C380.798745,35.5290878 385.265597,32.5005053 390.418232,30.2485183 C395.571552,27.9965313 401.206088,26.88 407.303989,26.88 Z M244.539419,26.88 C249.724199,26.88 254.966588,27.6998034 260.247383,29.3584754 C265.528177,30.9980822 270.348813,33.2668405 274.707158,36.1456851 L274.707158,36.1456851 L267.237945,49.4348325 C263.281439,47.0707482 259.306441,45.2023591 255.254631,43.8105998 C251.202822,42.4181344 247.496664,41.7317874 244.059347,41.7317874 C240.449204,41.7317874 237.606465,42.4951013 235.590162,44.038676 C233.554656,45.583663 232.556106,47.5473781 232.556106,49.9114624 L232.556106,49.9114624 L232.556106,50.2165055 C232.556106,51.6463952 233.074584,52.9046981 234.11154,53.9914142 C235.130004,55.0781304 236.511901,56.0504554 238.220958,56.9274544 C239.930726,57.8044534 241.908624,58.5861264 244.136159,59.3106038 C246.362983,60.0350812 248.668041,60.8167543 251.049199,61.6365577 C254.064052,62.5707523 257.059703,63.6384032 260.074557,64.8776409 C263.070207,66.1175848 265.797018,67.6420943 268.235784,69.4342227 C270.65606,71.2454162 272.672363,73.4386199 274.285406,76.0117151 C275.84084,78.5862227 276.608955,81.7319799 276.608955,85.4306279 L276.608955,85.4306279 L276.608955,85.735671 C276.608955,90.0444052 275.84084,93.8193139 274.285406,97.0032016 C272.729972,100.206154 270.578537,102.837858 267.832524,104.954094 C265.086511,107.070331 261.841222,108.652742 258.115862,109.739458 C254.371299,110.826175 250.377098,111.36 246.133259,111.36 C240.218058,111.36 234.24596,110.330479 228.177847,108.271438 C222.109734,106.212397 216.483287,103.180325 211.298507,99.1582748 L211.298507,99.1582748 L219.69017,86.4982788 C224.14524,89.7965577 228.677122,92.2940983 233.305018,93.9909007 C237.914423,95.7067683 242.349579,96.5456369 246.594129,96.5456369 C250.645938,96.5456369 253.776009,95.7456048 256.003544,94.1434223 C258.231079,92.542652 259.344847,90.4257091 259.344847,87.7375165 L259.344847,87.7375165 L259.344847,87.4324734 C259.344847,85.8881926 258.845572,84.5536289 257.866224,83.4097172 C256.867674,82.2848706 255.523472,81.2744152 253.814415,80.3967101 C252.086155,79.5387763 250.12746,78.7578094 247.899925,78.0905276 C245.652476,77.4041805 243.34884,76.7171274 240.967682,75.9933561 C237.952117,75.1735527 234.918061,74.1821625 231.864802,73.0573159 C228.811542,71.9317633 226.065529,70.4637432 223.626762,68.6525496 C221.187995,66.8604213 219.190895,64.6107282 217.635461,61.9423069 C216.060824,59.2534082 215.291997,55.9551294 215.291997,52.0467643 L215.291997,52.0467643 L215.291997,51.741015 C215.291997,47.8333561 216.041621,44.3627844 217.558649,41.3130592 C219.056475,38.2619218 221.130387,35.6881204 223.780385,33.5146881 C226.430384,31.360321 229.541252,29.7016489 233.112989,28.5768024 C236.685438,27.4519559 240.48761,26.88 244.539419,26.88 Z M192.089552,26.88 L192.089552,111.36 L176.722388,111.36 L176.722388,26.88 L192.089552,26.88 Z M106.484744,0 C141.209227,0 165.197015,23.1851045 165.197015,53.6177062 C165.197015,84.0313354 141.209227,107.52 106.50423,107.52 L72.9099243,107.52 C79.6917174,103.117676 85.3426102,97.2361993 89.3956644,90.3119374 L106.484744,90.3119374 C129.673612,90.3119374 144.833593,75.1142577 144.833593,53.9022938 C144.833593,32.7093023 129.693098,17.1897928 106.484744,17.1897928 L84.7183417,17.1897928 L84.7183417,33.0135651 C81.5233861,29.1424713 77.8008695,25.7084478 73.5724428,22.8815444 C70.9808264,21.1360739 68.1943517,19.6562185 65.3104478,18.3850606 L65.3104478,0 L106.484744,0 Z M41.975453,23.1595184 C65.151089,23.1595184 83.9504211,41.9306974 83.9504211,65.1149178 C83.9504211,88.2804417 65.1697941,107.07101 41.975453,107.07101 C18.7991243,107.051621 -0.000207834589,88.2610529 -0.000207834589,65.0955289 C-0.000207834589,41.9306974 18.7991243,23.1595184 41.975453,23.1595184 Z M406.9889,43.1177161 C403.374642,43.1177161 400.094008,43.7982886 397.164846,45.1804605 C394.217836,46.5619315 391.678588,48.3975847 389.584172,50.7063444 C387.489756,52.995479 385.877241,55.7023491 384.783696,58.824852 C383.671617,61.947355 383.134112,65.296949 383.134112,68.8743351 L383.134112,69.1764223 C383.134112,72.6584862 383.745755,75.9709326 384.931973,79.1305832 C386.136726,82.3105598 387.804845,85.0735018 389.9734,87.4958071 C392.12342,89.8991881 394.681202,91.7726898 397.628899,93.1541608 C400.575909,94.5356318 403.800939,95.2358295 407.303989,95.2358295 C411.010921,95.2358295 414.347159,94.5356318 417.294169,93.1541608 C420.259714,91.7726898 422.780427,89.9181124 424.874843,87.5708032 C426.969259,85.2248958 428.563926,82.4998024 429.675319,79.3772994 C430.76955,76.2547965 431.32559,72.9619753 431.32559,69.4981348 L431.32559,69.1960475 C431.32559,65.6186614 430.713946,62.2312189 429.509193,59.0708674 C428.304441,55.8915917 426.636322,53.147574 424.485615,50.7820415 C422.335595,48.4354332 419.777813,46.5619315 416.830802,45.1804605 C413.883792,43.7982886 410.603158,43.1177161 406.9889,43.1177161 Z M34.1539444,44.6015119 C30.8950979,42.8045807 26.9025952,45.1603263 26.9025952,48.8802161 L26.9025952,48.8802161 L26.9025952,82.0988601 C26.9025952,85.8526804 30.9595266,88.2049637 34.2190659,86.3422489 L34.2190659,86.3422489 L63.803628,69.4344771 C67.1165115,67.5412942 67.0797941,62.754325 63.7385065,60.9116915 L63.7385065,60.9116915 Z M578.413344,42.0573826 C572.526902,42.0573826 567.654019,44.0262228 563.814187,47.9625016 C559.974356,51.8980795 557.63465,55.0773816 556.777023,61.4177622 L599.581868,61.4177622 C599.270004,58.4466287 598.5878,57.6139544 597.515766,55.0023848 C596.463223,52.3908152 595.040342,50.1191843 593.266612,48.1888937 C591.47267,46.2403797 589.348815,44.7264263 586.872668,43.665958 C584.397966,42.6068916 581.591185,42.0573826 578.413344,42.0573826 Z" id="path-1"/>
    </defs>
    <g id="Artboard-Copy-3" stroke="none" stroke-width="1" fill="none" fill-rule="evenodd">
        <g id="*atoms/Logos/discoverycom/brasil" transform="translate(26.921440, 9.740000)">
            <g id="Group-7" transform="translate(0.000000, 14.720000)">
                <mask id="mask-2" fill="#ffffff">
                    <use xlink:href="#path-1"/>
                </mask>
                <use id="Mask" fill="#ffffff" xlink:href="#path-1"/>
                <rect id="atoms/Color/Tu-Discovery/primary/#00FFAA" fill="#ffffff" mask="url(#mask-2)" x="-0.000207834598" y="0" width="772.2" height="149.76"/>
            </g>
            <path d="M865.045435,5.05684428 C870.691918,6.47826616 876.338401,8.84730262 881.514344,12.637761 C890.92515,19.7448703 892.807311,31.5900527 888.101908,41.0661985 C884.337586,49.1209225 878.220562,55.2804173 871.632999,61.4399121 C857.51679,73.7589017 841.518421,82.7612402 824.578971,90.3421569 C824.108431,90.8159642 823.637891,90.8159642 822.22627,91.2897715 C825.990592,91.7635788 829.754914,92.2373861 833.048696,92.7111934 C841.988961,94.6064225 850.458686,96.5016517 857.987331,101.239725 C864.104354,104.556376 868.809757,109.294449 870.691918,115.927751 C872.574079,122.561053 870.221378,128.720548 865.986515,133.932428 C860.340032,141.039537 852.811388,145.77761 844.812203,149.568068 C830.695995,156.201371 816.109246,161.413251 801.051958,163.782287 C796.817095,164.256095 792.582233,164.729902 788.817911,164.256095 C785.524129,163.782287 783.171427,162.360865 781.289266,159.518022 C779.877645,157.622792 780.818726,155.253756 783.171427,155.253756 C790.229531,155.727563 797.287635,153.832334 804.34574,151.937105 C818.932488,148.620454 832.578156,143.408574 845.753284,136.301464 C850.929227,133.458621 855.634629,129.668162 859.398952,124.456282 C864.104354,117.82298 863.633814,113.558714 857.04625,109.294449 C852.811388,106.451605 848.105985,105.030183 842.930042,104.082568 C832.578156,101.713532 822.22627,99.8183028 811.403844,99.8183028 C805.28682,99.8183028 799.169797,100.765917 793.052773,103.134954 C792.111692,103.608761 791.170612,104.082568 790.700072,105.030183 C783.641968,122.087246 777.054404,139.144308 771.40792,157.148985 C770.46684,159.991829 769.9963,162.834673 769.525759,165.677516 C769.055219,168.994167 766.702518,169.941782 763.879276,168.52036 C761.526575,167.572746 759.644414,166.151324 758.703333,163.782287 C757.762253,162.360865 758.232793,160.939443 758.703333,159.518022 C769.525759,131.089584 780.348186,103.134954 792.111692,75.1803236 C798.699256,59.0708756 805.28682,42.9614277 811.403844,26.8519797 C812.815465,23.5353287 814.697626,23.0615214 817.520867,25.4305579 C821.285189,28.7472089 822.22627,32.5376672 820.344109,36.8019329 C813.756545,51.4899589 807.168981,65.7041777 801.051958,80.3922038 C799.169797,83.7088548 798.228716,86.0778913 797.287635,88.4469277 C805.28682,86.5516986 812.344924,83.7088548 819.403028,80.3922038 C837.283559,72.3374798 853.281928,61.9137194 867.868676,49.1209225 C873.044619,44.3828496 877.279482,39.6447766 880.102724,33.0114745 C880.102724,32.5376672 880.573264,32.06386 880.573264,31.5900527 C882.455425,25.9043651 881.043804,21.6400995 875.867861,18.7972558 C870.691918,15.954412 864.574895,14.0591828 858.928411,13.1115683 C848.105985,11.2163391 837.283559,10.2687245 825.990592,10.7425318 C809.521683,11.6901464 793.523313,14.0591828 778.466025,20.6924849 C776.113323,21.6400995 773.760622,23.0615214 771.878461,24.4829433 C770.93738,25.4305579 769.9963,25.9043651 769.525759,27.325787 C769.055219,28.7472089 768.114139,28.7472089 767.173058,28.2734016 C763.879276,26.3781724 761.526575,24.009136 761.056034,20.2186776 C760.585494,18.3234485 761.997115,17.3758339 763.408736,16.9020266 C768.114139,13.5853755 773.290082,11.2163391 778.936565,9.32110992 C793.052773,4.1092297 807.639522,1.26638595 822.69681,0.792578653 C837.283559,0.318771361 851.399767,1.26638595 865.045435,5.05684428 Z M1156.30986,16.9020266 C1160.07419,16.9020266 1162.89743,18.7972558 1164.77959,21.6400995 C1167.60283,26.3781724 1168.07337,31.5900527 1166.66175,36.8019329 C1164.30905,44.8566568 1160.54473,51.9637662 1156.30986,59.0708756 C1147.3696,74.7065163 1137.01771,89.3945423 1126.19529,103.134954 C1123.84258,105.977798 1122.43096,109.294449 1121.48988,113.084907 C1120.5488,120.192016 1119.60772,127.299126 1119.60772,134.406235 C1119.60772,136.301464 1120.07826,138.196693 1120.5488,139.618115 C1121.48988,141.987152 1122.9015,142.460959 1125.25421,141.513344 C1128.54799,140.091923 1131.37123,137.722886 1133.72393,135.35385 C1146.89906,122.561053 1158.19202,108.346834 1168.07337,92.7111934 C1168.26943,92.5137737 1168.44506,92.2957894 1168.6173,92.0743777 L1168.82343,91.8081353 C1169.40902,91.0553356 1170.03396,90.3421569 1171.36715,90.3421569 C1172.77877,90.8159642 1173.71985,91.7635788 1174.19039,93.1850007 C1175.13147,95.5540371 1174.66093,97.9230736 1173.24931,100.29211 C1170.42607,105.030183 1167.60283,109.768256 1164.30905,114.032522 C1156.7804,123.982475 1149.25176,133.932428 1140.31149,142.934766 C1138.89987,144.356188 1137.48825,145.77761 1135.60609,147.199032 C1128.54799,153.832334 1119.13718,151.463298 1113.4907,144.356188 C1110.66746,140.56573 1109.72638,136.301464 1109.72638,131.563391 C1109.72638,128.24674 1109.25584,124.456282 1109.72638,120.665824 C1109.25584,121.139631 1108.7853,122.087246 1108.31476,122.561053 C1103.60935,129.194355 1098.43341,135.35385 1092.31639,140.56573 C1091.37531,141.513344 1090.43423,141.987152 1089.49315,142.460959 C1081.49396,147.672839 1072.5537,145.303803 1068.31883,136.301464 C1065.96613,131.089584 1065.49559,125.877704 1066.90721,120.192016 C1066.90721,119.836661 1066.97338,119.481305 1067.05609,119.12595 L1067.22887,118.415239 C1067.31158,118.059884 1067.37775,117.704528 1067.37775,117.349173 C1066.90721,116.875365 1066.43667,117.349173 1065.96613,117.82298 C1060.31965,122.087246 1054.67316,125.877704 1048.55614,129.194355 C1047.14452,130.141969 1046.20344,131.089584 1046.67398,132.511006 C1047.14452,144.829996 1038.20426,153.358527 1026.91129,154.779949 C1024.08805,155.253756 1021.26481,155.253756 1018.44156,154.779949 C1012.32454,153.832334 1007.61914,147.199032 1009.03076,141.039537 C1009.5013,139.144308 1010.44238,138.196693 1012.32454,137.249079 C1017.97102,133.932428 1023.61751,131.563391 1029.73453,128.720548 C1032.08723,127.772933 1033.96939,126.825318 1036.32209,125.877704 C1037.73372,125.403897 1037.73372,124.456282 1037.26317,123.508667 C1035.85155,119.718209 1033.96939,115.927751 1032.55777,112.137292 C1032.08723,110.71587 1031.14615,108.820641 1030.67561,107.399219 C1028.32291,111.189678 1025.97021,114.506329 1023.61751,117.82298 C1019.38264,123.508667 1015.61832,129.194355 1010.44238,134.406235 C1006.67806,138.670501 1001.97265,142.460959 996.326171,144.829996 C988.326986,147.672839 981.268882,144.356188 978.445641,136.301464 C976.56348,130.615777 977.03402,124.930089 978.445641,119.244402 C978.916181,116.875365 979.857261,114.506329 980.327802,112.137292 C977.03402,116.401558 973.740238,120.665824 969.975916,124.456282 C963.388352,132.037199 956.330248,139.144308 948.801603,145.303803 L944.566741,148.146647 C940.802419,150.515683 936.567556,149.568068 933.744315,146.251417 C931.391613,143.882381 930.450533,141.039537 929.509452,137.722886 C928.568372,139.144308 928.568372,138.670501 928.097831,138.196693 C926.686211,139.618115 924.804049,141.039537 923.392429,142.460959 C921.039727,144.356188 918.216486,146.251417 915.393244,147.672839 C909.27622,150.515683 903.159197,148.620454 899.865415,142.934766 C897.042173,138.196693 896.101093,133.458621 897.512714,128.24674 C898.924334,121.139631 901.747576,114.506329 904.570818,107.873027 C906.923519,103.608761 908.80568,99.3444955 911.158382,94.6064225 C912.099462,93.1850007 912.570002,91.2897715 913.511083,89.3945423 C914.922704,85.604084 914.452163,84.6564694 910.687841,83.7088548 C905.511898,82.7612402 905.511898,82.7612402 902.688657,87.0255059 C897.983254,94.1326153 893.277851,101.713532 888.572448,108.820641 C888.101908,109.768256 887.631368,110.242063 886.690287,111.189678 C885.749207,112.137292 884.337586,113.084907 882.925965,112.137292 C881.514344,111.663485 880.573264,110.242063 880.573264,108.820641 C880.573264,106.451605 881.514344,104.556376 882.455425,102.661147 C886.219747,96.5016517 889.984069,90.3421569 894.218932,84.1826621 C898.453794,77.0755527 903.159197,69.9684433 906.452979,61.9137194 C907.394059,60.0184902 908.33514,60.0184902 909.746761,60.4922975 C911.628922,60.9661048 912.570002,62.3875267 913.981623,63.8089485 C914.922704,64.7565631 914.922704,65.7041777 914.452163,67.1255996 C914.256105,67.9152784 913.896665,68.622699 913.509994,69.3164099 L913.041632,70.1466695 C912.654961,70.8403804 912.295521,71.547801 912.099462,72.3374798 C910.687841,74.7065163 911.158382,75.6541308 913.981623,76.1279381 L921.039727,77.54936 C926.21567,78.9707819 928.097831,83.2350475 926.21567,87.9731205 C922.451348,96.5016517 918.216486,104.556376 914.922704,113.084907 C912.099462,120.192016 908.80568,127.299126 907.394059,135.35385 C907.394059,136.775272 906.923519,138.196693 907.8646,139.144308 C909.27622,140.091923 910.687841,139.144308 911.628922,138.670501 C913.511083,137.722886 915.393244,136.301464 917.275405,134.406235 C925.74513,126.351511 932.803234,117.82298 939.390798,108.346834 C943.62566,102.661147 946.448902,96.0278444 950.683765,90.3421569 C954.448087,85.1302767 958.682949,80.3922038 963.858892,76.6017454 C973.269698,69.494636 983.151043,71.3898652 989.738607,81.3398184 C991.150228,83.7088548 991.150228,83.7088548 993.032389,81.3398184 C993.502929,80.3922038 994.44401,79.4445892 994.91455,78.9707819 C996.326171,77.54936 998.208332,77.0755527 999.619953,78.4969746 C1001.50211,79.9183965 1002.91373,81.8136257 1003.85482,84.1826621 C1004.32536,86.0778913 1003.85482,87.4993132 1002.91373,89.3945423 C995.855631,101.239725 990.679688,113.558714 987.385906,126.825318 C986.915366,128.720548 986.915366,130.615777 986.444825,132.984813 L986.444825,135.827657 C987.385906,139.144308 989.268067,140.091923 992.091309,138.196693 C994.44401,136.775272 996.326171,135.35385 998.208332,133.458621 C1006.67806,125.403897 1013.73616,115.927751 1020.32372,106.925412 C1024.55859,101.239725 1028.32291,95.0802298 1031.61669,88.4469277 C1036.32209,78.9707819 1042.90966,70.9160579 1052.32046,65.7041777 C1057.49641,62.861334 1062.67235,64.2827558 1065.02505,69.0208288 C1065.49559,69.9684433 1065.49559,70.4422506 1065.96613,71.3898652 C1065.96613,73.2850944 1065.49559,74.232709 1063.61343,74.7065163 C1052.32046,78.0231673 1045.26236,86.5516986 1039.14534,96.5016517 C1036.79263,100.29211 1037.26317,104.556376 1038.6748,108.346834 C1040.08642,113.084907 1042.43912,117.349173 1044.32128,121.613438 C1044.79182,123.03486 1045.26236,122.561053 1046.20344,122.087246 C1052.32046,118.770594 1057.96695,114.980136 1063.14289,110.71587 C1071.61261,104.082568 1077.2591,95.0802298 1081.49396,85.1302767 C1082.43504,82.7612402 1083.84666,80.3922038 1084.78774,78.0231673 C1085.72882,76.6017454 1086.6699,76.1279381 1088.55206,76.1279381 C1093.25747,77.0755527 1095.61017,81.8136257 1093.25747,86.0778913 C1087.61098,97.9230736 1081.9645,110.242063 1078.67072,123.03486 C1077.72964,126.351511 1077.2591,129.194355 1076.78856,132.511006 L1076.78856,134.406235 C1077.2591,137.722886 1079.14126,139.144308 1081.9645,137.249079 C1084.3172,136.301464 1086.19936,134.406235 1087.61098,132.984813 C1097.49233,123.508667 1105.96205,112.6111 1113.4907,101.239725 C1113.96124,100.29211 1113.96124,99.8183028 1114.43178,98.8706882 C1120.5488,75.6541308 1128.54799,53.8589954 1139.37041,32.5376672 C1141.25258,29.2210162 1143.13474,25.4305579 1145.48744,22.5877141 C1148.31068,19.2710631 1151.60446,16.9020266 1156.30986,16.9020266 Z M1037.73372,136.301464 C1031.61669,139.144308 1025.97021,141.513344 1020.32372,144.356188 C1019.38264,144.829996 1018.44156,145.77761 1017.50048,146.251417 C1017.02994,146.725225 1016.5594,147.199032 1016.5594,147.672839 C1017.02994,148.620454 1017.50048,148.146647 1018.44156,148.146647 C1024.08805,147.672839 1029.73453,146.251417 1034.43993,142.460959 C1035.85155,141.039537 1036.79263,139.144308 1037.73372,136.301464 Z M973.269698,83.7088548 C970.916996,85.1302767 968.564295,87.0255059 966.682134,89.3945423 C953.977546,103.608761 945.037281,120.192016 937.979177,137.722886 C937.783119,137.920306 937.668751,138.282242 937.567999,138.671598 L937.449275,139.143211 C937.348522,139.532567 937.234155,139.894503 937.038097,140.091923 C937.038097,141.987152 937.979177,141.987152 938.920258,141.513344 C941.743499,140.091923 944.096201,137.722886 946.448902,135.35385 C958.212409,123.947378 968.765678,111.322266 979.229301,98.6068842 L981.739423,95.5540371 L981.739423,95.5540371 C985.974285,90.3421569 985.974285,90.3421569 981.739423,85.1302767 C979.386721,82.2874329 976.56348,81.8136257 973.269698,83.7088548 Z M1155.68312,26.538708 L1155.47337,26.7467855 C1155.43849,26.7817861 1155.40364,26.8168829 1155.36878,26.8519797 C1153.95716,28.2734016 1152.54554,30.1686308 1151.60446,32.06386 C1146.42852,40.5923912 1143.13474,49.5947298 1139.37041,58.5970683 C1135.13555,67.1255996 1131.84177,75.1803236 1129.95961,83.7088548 C1136.54717,72.8112871 1144.07582,61.9137194 1150.19284,50.5423444 C1153.95716,43.9090423 1157.25094,36.8019329 1159.13311,29.2210162 C1159.60365,28.2734016 1159.60365,26.8519797 1158.66257,25.9043651 C1157.40779,25.0620411 1156.5248,25.717182 1155.68312,26.538708 Z M1097.96287,42.0138131 C1101.25665,42.0138131 1104.55043,42.9614277 1107.37368,45.3304641 C1108.31476,46.2780787 1109.25584,47.2256933 1109.72638,48.1733079 C1111.138,50.5423444 1110.19692,52.4375735 1107.37368,53.3851881 C1102.66827,54.80661 1097.96287,53.8589954 1093.25747,51.9637662 C1091.37531,51.0161516 1090.43423,48.6471152 1090.43423,46.2780787 C1090.90477,44.3828496 1091.84585,42.9614277 1094.19855,42.4876204 C1095.61017,42.4876204 1096.55125,42.0138131 1097.96287,42.0138131 Z" id="Combined-Shape" fill="#ffffff" fill-rule="nonzero"/>
        </g>
    </g>
</svg>
