<?xml version="1.0" encoding="UTF-8"?><svg id="a" xmlns="http://www.w3.org/2000/svg" viewBox="0 0 650 650"><defs><style>.e{fill:#fff;}</style></defs><path id="b" class="e" d="M545.35,211.89h-116.65c-8.61,0-15.66,7.04-15.66,15.63v194.95c0,8.61,7.04,15.65,15.66,15.65h116.65c8.58,0,15.65-7.04,15.65-15.65V227.52c0-8.59-7.06-15.63-15.65-15.63Zm-31.94,91.18c-5.9-5.26-13.7-8.48-22.22-8.48-18.43,0-33.39,14.92-33.39,33.35s14.96,33.36,33.39,33.36c8.52,0,16.33-3.23,22.22-8.5l-.02,.03c.72-.7,1.95-.7,2.65,0l12.06,12.05c.63,.65,.66,1.7,.09,2.4-9.65,9.09-22.69,14.7-37.02,14.7-29.87,0-54.08-24.22-54.08-54.04s24.21-54.07,54.08-54.07c14.33,0,27.34,5.6,37.02,14.72,.57,.73,.54,1.75-.09,2.41l-12.06,12.07c-.71,.7-1.93,.7-2.65-.02l.02,.02Z"/><path id="c" class="e" d="M383.32,211.89h-116.65c-8.61,0-15.66,7.04-15.66,15.63v194.95c0,8.61,7.04,15.65,15.66,15.65h116.65c8.58,0,15.65-7.04,15.65-15.65V227.52c0-8.59-7.06-15.63-15.65-15.63Zm-25.32,167.87c0,1.01-.79,1.84-1.82,1.84h-38.68c-16.33,0-23.39-10.46-23.39-24.05v-81.46c0-.99,.82-1.81,1.83-1.81h17.04c1.01,0,1.82,.82,1.82,1.81v74.89c0,5.48,4.43,9.92,9.93,9.92h31.46c1.03,0,1.82,.84,1.82,1.84v17.03Z"/><path id="d" class="e" d="M221.31,211.89H104.66c-8.61,0-15.66,7.04-15.66,15.63v194.95c0,8.61,7.04,15.65,15.66,15.65h116.65c8.58,0,15.65-7.04,15.65-15.65V227.52c0-8.59-7.06-15.63-15.65-15.63Zm-15.38,81.25c0,1.01-.84,1.82-1.85,1.82h-24.51c-4.29,0-7.76,3.47-7.76,7.76v77.05c0,1.01-.81,1.82-1.82,1.82h-17.06c-1.01,0-1.82-.81-1.82-1.82v-77.05c0-4.29-3.46-7.76-7.76-7.76h-25.57c-.99,0-1.83-.82-1.83-1.82v-17.06c0-.99,.83-1.81,1.83-1.81h86.31c1.01,0,1.85,.81,1.84,1.81v17.06Z"/></svg>